<svg width="200" height="100" viewBox="0 0 200 100" fill="none" xmlns="http://www.w3.org/2000/svg">
  <path d="M50 20C33.4315 20 20 33.4315 20 50C20 66.5685 33.4315 80 50 80C66.5685 80 80 66.5685 80 50C80 33.4315 66.5685 20 50 20ZM50 25C63.8071 25 75 36.1929 75 50C75 63.8071 63.8071 75 50 75C36.1929 75 25 63.8071 25 50C25 36.1929 36.1929 25 50 25Z" fill="white"/>
  <path d="M50 35C45 35 40 40 40 45C40 50 45 55 50 55C55 55 60 50 60 45C60 40 55 35 50 35ZM50 40C52.5 40 55 42.5 55 45C55 47.5 52.5 50 50 50C47.5 50 45 47.5 45 45C45 42.5 47.5 40 50 40Z" fill="white"/>
  <path d="M40 60L50 70L60 60H40Z" fill="white"/>
  <text x="90" y="45" font-family="Arial" font-size="12" fill="white">خط العرب للسياحة</text>
  <text x="90" y="65" font-family="Arial" font-size="16" font-weight="bold" fill="white">Arab Line Tours</text>
</svg>