<?xml version="1.0" standalone="no"?>
<!DOCTYPE svg PUBLIC "-//W3C//DTD SVG 20010904//EN"
 "http://www.w3.org/TR/2001/REC-SVG-20010904/DTD/svg10.dtd">
<svg version="1.0" xmlns="http://www.w3.org/2000/svg"
 width="5625.000000pt" height="5625.000000pt" viewBox="0 0 5625.000000 5625.000000"
 preserveAspectRatio="xMidYMid meet">

<g transform="translate(0.000000,5625.000000) scale(0.100000,-0.100000)"
fill="#000000" stroke="none">
<path d="M0 28125 l0 -28125 28125 0 28125 0 0 28125 0 28125 -28125 0 -28125
0 0 -28125z m14054 4259 c3 -8 2 -12 -4 -9 -6 3 -10 10 -10 16 0 14 7 11 14
-7z m312 -19 c1 -8 -1 -15 -6 -15 -10 0 -20 26 -13 34 8 8 16 -1 19 -19z
m-583 0 c-3 -9 -8 -14 -10 -11 -3 3 -2 9 2 15 9 16 15 13 8 -4z m59 3 c-19
-19 -14 -28 14 -28 17 0 23 4 18 13 -6 9 -4 9 7 1 8 -7 37 -12 66 -13 42 0 55
3 67 20 8 11 17 16 20 11 3 -6 0 -13 -6 -15 -7 -3 15 -6 49 -6 58 -1 89 11 61
22 -10 4 -10 6 0 6 8 1 16 -8 19 -19 5 -19 13 -21 87 -19 44 1 97 -1 116 -4
19 -4 69 -9 110 -13 101 -8 130 -12 165 -19 17 -3 53 -10 80 -15 28 -5 65 -12
84 -16 28 -6 33 -5 26 7 -5 8 1 5 13 -5 12 -11 22 -16 22 -11 0 4 7 2 15 -5 8
-7 35 -14 60 -15 25 -2 51 -7 58 -12 11 -9 86 -33 101 -33 4 0 4 6 1 13 -4 6
0 4 8 -5 8 -10 25 -20 38 -22 13 -3 25 -5 27 -5 1 -1 4 -1 7 -1 3 0 19 -7 36
-15 24 -13 34 -14 45 -4 12 10 13 9 8 -5 -3 -9 -1 -17 5 -17 13 -2 29 -6 36
-9 3 -1 8 -3 13 -4 4 -1 17 -7 30 -14 12 -7 22 -10 22 -6 0 3 6 2 13 -4 22
-18 152 -69 169 -66 10 1 16 -3 15 -9 -1 -6 21 -20 49 -32 29 -11 58 -26 65
-32 8 -6 22 -9 32 -8 9 2 15 0 12 -4 -2 -5 19 -21 48 -37 58 -32 69 -39 122
-72 20 -12 34 -18 31 -14 -3 5 1 9 8 9 8 0 12 -6 9 -14 -6 -16 9 -17 27 0 12
10 12 9 2 -5 -14 -18 0 -34 20 -22 6 4 8 3 5 -3 -8 -12 69 -66 83 -58 5 3 12
0 16 -6 5 -8 2 -10 -7 -5 -8 4 -5 0 6 -8 11 -9 25 -14 32 -12 7 3 10 -1 7 -8
-3 -8 7 -18 25 -26 17 -7 31 -16 31 -21 0 -5 5 -9 10 -9 6 0 32 -20 58 -45 26
-25 50 -45 55 -45 5 0 22 -13 38 -30 19 -18 36 -27 47 -24 12 4 13 3 4 -3 -9
-7 -6 -15 13 -33 19 -18 27 -21 39 -11 10 8 16 9 21 1 3 -6 10 -8 15 -5 5 3
11 1 14 -4 7 -10 -13 -9 -31 2 -13 8 -27 -8 -18 -23 3 -5 13 -6 22 -3 10 4 14
2 10 -4 -7 -12 16 -36 25 -27 3 3 9 0 14 -7 5 -8 3 -10 -7 -4 -8 5 20 -26 61
-69 41 -43 94 -98 118 -123 23 -24 42 -48 42 -52 0 -9 39 -46 48 -46 4 0 7 -6
9 -14 1 -11 26 -44 58 -76 5 -6 15 -19 21 -30 7 -11 19 -19 28 -19 12 1 14 -1
7 -10 -8 -9 -1 -23 23 -49 18 -20 31 -39 28 -42 -3 -3 0 -5 6 -5 7 0 12 -7 12
-15 0 -9 7 -18 15 -21 8 -4 13 -10 10 -15 -3 -4 4 -13 15 -19 11 -6 20 -17 20
-25 0 -22 55 -107 64 -98 4 4 4 0 0 -10 -3 -10 -1 -17 5 -17 6 0 11 -7 11 -16
0 -8 4 -13 9 -10 5 3 8 0 8 -7 -2 -24 37 -88 51 -82 7 3 10 0 7 -6 -4 -5 -3
-18 1 -27 4 -9 8 -21 9 -27 0 -5 7 -9 14 -7 7 1 10 -2 6 -8 -4 -6 0 -21 8 -33
7 -12 17 -34 20 -49 4 -14 19 -41 34 -59 16 -18 22 -29 15 -25 -11 6 -11 4 -3
-10 5 -11 17 -40 27 -66 9 -27 21 -45 27 -41 6 4 7 1 2 -6 -8 -14 24 -93 35
-86 4 2 5 -7 2 -20 -3 -16 0 -25 8 -25 7 0 10 -6 7 -12 -2 -7 0 -24 6 -38 5
-14 12 -33 14 -43 1 -10 9 -28 15 -40 7 -12 11 -26 10 -31 -2 -5 0 -16 4 -25
4 -9 8 -19 9 -23 2 -5 3 -9 4 -10 1 -2 4 -18 7 -37 2 -19 12 -44 22 -55 9 -10
11 -16 5 -12 -7 4 -13 2 -13 -3 0 -6 5 -11 11 -11 5 0 7 -5 4 -10 -4 -6 -4
-19 0 -28 4 -9 9 -28 11 -41 2 -13 8 -47 14 -75 6 -28 14 -69 16 -91 3 -22 7
-46 9 -54 3 -7 8 -41 11 -75 3 -33 8 -68 11 -76 13 -37 24 -537 13 -621 -5
-35 -4 -59 4 -68 8 -10 8 -13 0 -8 -13 8 -38 -180 -28 -208 5 -11 4 -16 -3
-12 -5 3 -10 1 -11 -6 -3 -38 -11 -84 -17 -99 -4 -10 -5 -25 -1 -33 3 -8 2
-15 -3 -15 -4 0 -13 -31 -20 -69 -7 -38 -14 -75 -15 -83 -4 -18 -42 -146 -77
-252 -15 -49 -26 -93 -23 -97 3 -5 0 -9 -7 -9 -8 0 -7 -5 2 -17 10 -12 10 -15
1 -9 -15 9 -46 -58 -38 -81 4 -9 2 -11 -6 -7 -8 5 -9 2 -5 -10 4 -10 3 -15 -3
-11 -9 5 -12 -8 -9 -31 0 -4 -5 -10 -11 -14 -7 -4 -12 -19 -12 -34 0 -14 -4
-23 -8 -21 -7 4 -23 -35 -25 -61 0 -6 -6 -18 -12 -25 -16 -20 -54 -109 -46
-109 3 0 -2 -9 -11 -19 -10 -11 -15 -25 -10 -32 4 -7 3 -10 -3 -6 -6 4 -15 -5
-22 -19 -9 -20 -9 -24 1 -18 10 6 11 5 1 -8 -7 -8 -9 -19 -5 -23 4 -5 2 -5 -5
-1 -15 8 -47 -49 -37 -66 4 -7 3 -8 -4 -4 -11 6 -14 0 -11 -20 0 -4 -4 -10 -9
-13 -16 -10 -72 -117 -65 -124 3 -4 1 -7 -5 -7 -10 0 -56 -77 -54 -90 0 -3 -7
-14 -17 -25 -30 -34 -55 -78 -40 -70 8 3 7 1 -2 -7 -23 -19 -69 -95 -62 -102
4 -3 2 -6 -4 -6 -9 0 -83 -102 -83 -116 0 -3 -7 -12 -16 -21 -8 -9 -13 -22
-10 -30 3 -8 2 -11 -3 -8 -13 7 -42 -35 -34 -49 3 -6 3 -8 -2 -4 -7 7 -45 -32
-45 -47 0 -3 -7 -13 -15 -22 -8 -8 -13 -19 -9 -24 3 -5 0 -8 -8 -7 -7 2 -12
-5 -12 -14 1 -10 -2 -16 -6 -15 -13 3 -160 -195 -153 -207 3 -6 3 -8 -1 -4 -5
4 -60 -57 -124 -135 -64 -78 -121 -147 -127 -153 -78 -87 -124 -141 -126 -149
-2 -5 -26 -30 -52 -55 -31 -28 -46 -49 -42 -59 3 -9 3 -12 -1 -8 -12 12 -73
-53 -67 -72 4 -12 3 -13 -5 -3 -7 10 -19 2 -50 -34 -23 -25 -39 -51 -35 -57 3
-5 2 -7 -4 -4 -13 8 -95 -78 -85 -88 4 -5 2 -5 -4 -2 -10 6 -68 -44 -62 -54 2
-2 1 -3 -1 -1 -10 5 -50 -42 -44 -52 3 -6 2 -8 -2 -3 -11 9 -156 -134 -148
-147 3 -5 1 -6 -5 -3 -13 9 -95 -66 -85 -77 5 -4 3 -6 -3 -4 -7 1 -28 -13 -47
-32 -20 -19 -56 -53 -81 -74 -39 -33 -44 -42 -33 -55 11 -14 10 -14 -5 -2 -16
12 -22 9 -20 -10 1 -4 -6 -6 -16 -5 -9 0 -16 -5 -14 -12 1 -6 -2 -11 -6 -10
-9 3 -192 -152 -192 -162 0 -3 3 -10 8 -16 4 -5 3 -6 -2 -2 -11 8 -45 -8 -66
-32 -8 -9 -23 -19 -34 -23 -11 -5 -16 -13 -12 -23 3 -9 2 -12 -4 -9 -15 9
-111 -67 -105 -83 2 -7 1 -11 -4 -8 -12 8 -77 -39 -73 -53 1 -7 -2 -10 -8 -6
-11 7 -246 -172 -243 -186 2 -4 -4 -6 -12 -3 -8 4 -15 1 -15 -5 0 -6 -20 -20
-45 -32 -25 -12 -42 -26 -38 -32 3 -5 1 -7 -4 -4 -6 4 -30 0 -54 -9 -24 -9
-51 -17 -59 -19 -8 -2 -15 -4 -15 -5 0 -7 -115 -8 -168 -2 -44 6 -67 5 -67 -2
0 -5 -6 -3 -12 6 -7 8 -33 23 -57 32 -25 10 -58 27 -75 39 -16 11 -27 16 -23
11 3 -6 0 -11 -7 -11 -7 0 -13 7 -12 16 1 9 -6 15 -16 15 -10 -1 -16 1 -15 5
1 3 -2 7 -8 7 -5 1 -9 -2 -8 -6 1 -5 -5 -7 -14 -6 -9 2 -19 9 -21 17 -3 12 -2
12 6 0 7 -10 11 -10 17 -1 8 13 -30 49 -52 50 -7 0 -13 4 -13 9 0 14 -80 62
-92 55 -6 -4 -8 -3 -5 3 6 10 -28 45 -36 36 -3 -2 -10 5 -17 16 -6 12 -18 21
-28 21 -15 0 -15 -2 -2 -11 12 -8 12 -10 1 -7 -8 2 -15 12 -17 22 -1 10 -4 19
-6 20 -2 1 -22 17 -45 35 -24 18 -48 29 -54 25 -7 -4 -9 -3 -6 4 4 5 -17 29
-45 51 -29 23 -71 56 -92 74 -22 17 -45 31 -52 31 -8 -1 -12 2 -9 6 8 13 -43
53 -63 48 -11 -3 -19 0 -19 8 0 7 4 11 9 8 25 -15 1 9 -54 55 -98 82 -169 144
-189 165 -10 10 -22 15 -28 11 -6 -3 -11 0 -11 8 0 8 -23 36 -50 61 -45 42
-53 46 -68 34 -15 -11 -15 -11 -5 3 11 13 10 19 -5 33 -10 9 -22 14 -25 11 -4
-3 -5 -2 -2 2 8 10 -166 173 -178 166 -6 -3 -7 -2 -4 4 7 11 -62 80 -76 75 -5
-1 -6 1 -3 6 2 4 -25 39 -61 78 -36 38 -93 98 -127 134 -33 36 -80 87 -103
114 -23 26 -46 45 -52 42 -5 -4 -13 -1 -17 5 -4 8 -3 9 4 5 24 -14 11 8 -34
60 -25 30 -50 54 -55 54 -6 0 -7 -4 -4 -10 12 -19 -2 -10 -26 17 -19 22 -20
24 -2 10 32 -27 37 -4 5 26 -15 14 -35 37 -45 51 -10 14 -23 25 -30 23 -7 -1
-11 4 -9 12 2 8 -1 17 -5 20 -4 3 -27 32 -51 64 -25 33 -48 55 -54 51 -7 -4
-8 -2 -4 5 11 17 -57 102 -111 139 -16 11 -15 11 5 2 18 -9 10 7 -34 67 -31
43 -63 83 -70 89 -8 6 -11 14 -7 17 6 7 -13 11 -31 8 -5 -1 -4 5 3 13 11 13
10 17 -3 22 -9 3 -16 10 -16 15 0 9 -36 65 -50 79 -3 3 -12 17 -20 32 -40 74
-165 274 -173 280 -6 3 -12 14 -13 23 -3 22 -8 26 -32 28 -11 0 -19 5 -16 9 3
4 12 4 20 1 11 -4 7 11 -15 48 -17 30 -35 53 -41 52 -5 -2 -7 4 -3 12 3 9 -2
24 -11 34 -9 10 -13 21 -9 24 3 4 1 7 -5 7 -7 0 -12 5 -12 10 0 17 -90 204
-101 211 -6 3 -10 8 -9 10 5 13 -14 58 -23 52 -6 -3 -7 -1 -3 5 4 7 4 18 -1
25 -4 6 -8 14 -8 17 0 3 -9 27 -19 53 -13 32 -24 46 -33 43 -10 -4 -11 -1 -5
12 7 12 3 31 -11 62 -11 25 -21 50 -22 55 -2 6 -11 36 -21 68 -13 42 -22 56
-32 52 -12 -4 -12 -3 -3 9 9 11 9 22 -2 48 -7 18 -24 72 -37 121 -12 48 -27
87 -32 87 -5 0 -6 -5 -2 -12 4 -7 3 -8 -4 -4 -8 5 -9 13 -3 24 10 18 3 72 -8
72 -4 0 -8 8 -8 18 1 45 -4 73 -10 69 -5 -3 -9 18 -10 46 -2 48 -16 72 -37 60
-5 -3 -6 -1 -2 6 4 6 12 9 17 6 5 -4 9 3 9 15 0 12 -4 19 -8 16 -4 -2 -6 11
-4 31 3 20 1 33 -4 30 -5 -3 -9 11 -9 31 -1 35 -6 86 -21 192 -4 25 -12 51
-18 59 -8 11 -8 13 2 7 8 -5 12 0 12 17 0 13 -3 27 -7 30 -7 8 -4 462 4 545 3
34 1 58 -7 68 -11 12 -10 13 4 8 13 -5 16 0 16 26 0 21 -4 29 -12 24 -6 -4 -4
3 5 17 23 33 23 73 0 64 -13 -4 -12 -1 5 15 12 11 22 31 23 43 1 27 4 43 29
158 11 50 19 94 18 97 -1 4 1 14 5 22 19 52 25 80 16 85 -5 4 -9 12 -9 18 0 8
3 8 9 -1 5 -9 22 31 50 120 23 73 53 160 66 193 32 83 37 97 42 119 3 17 1 17
-14 5 -16 -13 -17 -12 -4 3 7 10 17 15 22 13 4 -3 13 3 18 14 14 26 14 34 -1
25 -7 -4 -3 4 8 17 12 13 33 48 48 78 21 42 24 57 15 67 -9 12 -9 13 4 8 12
-4 22 7 38 43 13 26 22 52 21 56 -1 5 1 6 6 3 5 -3 21 18 36 47 15 29 38 69
52 91 14 21 20 35 12 31 -7 -4 -3 2 10 12 13 10 24 27 26 36 1 9 11 27 22 39
11 13 21 28 24 33 2 6 10 16 17 23 7 8 10 19 6 25 -3 7 -3 9 2 5 4 -4 14 -3
22 3 10 9 11 15 2 26 -9 10 -9 12 3 8 10 -4 25 9 44 37 16 24 36 48 44 55 8 7
11 13 7 13 -5 0 5 12 22 26 17 14 30 28 29 32 -2 4 11 21 27 38 121 126 155
166 149 177 -4 7 -3 9 1 4 11 -10 46 23 38 36 -3 5 -2 7 4 4 10 -7 148 117
148 132 0 6 6 16 14 23 11 11 13 11 6 -1 -5 -9 -3 -12 6 -9 8 3 13 11 11 17
-1 7 2 10 7 6 6 -3 18 6 27 20 9 14 21 25 26 25 5 0 15 6 23 13 7 6 27 23 44
36 17 13 28 28 24 34 -3 6 -1 7 5 3 14 -9 64 23 56 35 -3 5 -2 9 3 8 19 -3 33
2 33 12 0 5 -5 7 -12 3 -7 -4 -8 -3 -4 4 4 6 14 8 23 5 9 -3 21 0 27 8 6 8 37
30 69 49 40 24 56 39 52 50 -5 11 -3 12 5 4 9 -9 23 -5 55 15 35 20 43 31 40
49 -2 12 0 20 6 17 5 -4 7 -11 4 -16 -12 -19 25 -8 46 14 12 12 19 17 16 11
-3 -6 32 9 79 33 51 27 82 49 78 55 -4 6 -2 8 4 4 14 -8 92 23 92 37 0 6 3 7
6 4 4 -3 16 -1 28 5 11 7 23 13 26 13 24 2 169 69 164 76 -3 5 2 6 10 3 15 -6
151 39 173 58 7 6 11 14 8 18 -3 5 -1 11 4 15 6 3 8 -3 6 -15 -2 -13 1 -20 11
-20 8 0 14 4 14 9 0 5 6 9 13 8 45 -1 59 4 53 19 -5 13 -3 14 6 6 16 -13 70
-4 62 10 -4 6 1 8 12 4 11 -3 35 -1 54 4 19 6 49 13 65 15 62 11 90 22 87 36
-3 11 -1 12 9 2 14 -14 53 -18 45 -5 -3 5 13 7 35 5 21 -2 39 0 39 5 0 4 17 8
38 8 45 2 203 17 234 23 4 0 10 10 13 21 3 11 11 20 18 20 8 0 8 -3 -1 -12z
m350 -10 c-7 -7 -12 -8 -12 -2 0 14 12 26 19 19 2 -3 -1 -11 -7 -17z m83 4
c-3 -3 -11 0 -18 7 -9 10 -8 11 6 5 10 -3 15 -9 12 -12z m492 -56 c0 -8 -6
-12 -15 -9 -11 5 -11 7 0 14 7 5 13 9 14 9 0 0 1 -6 1 -14z m287 -64 c3 -5 -1
-9 -9 -9 -8 0 -12 4 -9 9 3 4 7 8 9 8 2 0 6 -4 9 -8z m31 -1 c3 -5 2 -12 -3
-15 -5 -3 -9 1 -9 9 0 17 3 19 12 6z m-2199 -83 c4 -7 4 -10 -1 -6 -4 4 -15 2
-24 -5 -14 -11 -14 -10 -2 6 16 20 18 21 27 5z m2549 -8 c3 -5 1 -10 -4 -10
-6 0 -11 5 -11 10 0 6 2 10 4 10 3 0 8 -4 11 -10z m-2860 -79 c3 -5 2 -12 -3
-15 -5 -3 -9 1 -9 9 0 17 3 19 12 6z m-337 -235 c-2 -1 -11 -7 -20 -14 -14
-11 -16 -10 -13 5 2 10 4 19 4 20 1 1 8 0 16 -4 9 -3 15 -6 13 -7z m3912 -72
c0 -8 -19 -13 -24 -6 -3 5 1 9 9 9 8 0 15 -2 15 -3z m-4098 -38 c7 4 8 2 4 -5
-9 -13 -26 -5 -25 12 0 9 2 8 6 -1 2 -6 10 -9 15 -6z m4104 2 c3 -4 -1 -5 -10
-4 -8 1 -18 5 -22 8 -3 4 1 5 10 4 8 -1 18 -5 22 -8z m-4211 -47 c3 -5 2 -12
-3 -15 -5 -3 -9 1 -9 9 0 17 3 19 12 6z m4289 -17 c3 -8 2 -12 -4 -9 -6 3 -10
10 -10 16 0 14 7 11 14 -7z m53 -61 c-4 -3 -1 -13 6 -22 11 -14 10 -14 -5 -2
-16 12 -16 31 -1 31 4 0 3 -3 0 -7z m183 -87 c0 -2 -7 -7 -16 -10 -8 -3 -12
-2 -9 4 6 10 25 14 25 6z m-4767 -41 c-3 -9 -8 -14 -10 -11 -3 3 -2 9 2 15 9
16 15 13 8 -4z m-109 -113 c3 -5 -1 -9 -9 -9 -8 0 -12 4 -9 9 3 4 7 8 9 8 2 0
6 -4 9 -8z m5001 -1 c3 -5 2 -12 -3 -15 -5 -3 -9 1 -9 9 0 17 3 19 12 6z
m-5058 -56 c0 -8 -4 -12 -9 -9 -5 3 -6 10 -3 15 9 13 12 11 12 -6z m33237
-193 c3 -5 -1 -9 -9 -9 -8 0 -12 4 -9 9 3 4 7 8 9 8 2 0 6 -4 9 -8z m-25542
-22 c-20 -20 -25 -19 -17 2 3 8 12 15 20 15 12 0 11 -4 -3 -17z m978 -181 c0
-100 1 -184 2 -188 0 -3 0 -15 -1 -26 -1 -19 -8 -20 -188 -20 -151 0 -187 -3
-185 -13 1 -8 -2 -11 -8 -7 -6 3 -8 10 -5 15 3 4 0 10 -6 12 -7 2 -10 64 -9
193 1 160 3 192 17 205 9 8 13 9 9 2 -6 -10 30 -12 176 -10 145 2 182 6 180
16 -1 8 2 11 7 8 5 -4 10 -86 11 -187z m2346 176 c-1 -8 -5 -17 -8 -21 -5 -4
-4 16 1 34 3 9 9 -1 7 -13z m22179 6 c3 -5 2 -12 -3 -15 -5 -3 -9 1 -9 9 0 17
3 19 12 6z m-25075 -25 c1 -6 0 -86 0 -178 -1 -131 2 -168 12 -169 10 0 10 -2
1 -6 -7 -2 -13 -11 -13 -19 0 -12 -32 -15 -206 -14 -153 1 -204 4 -195 13 7 7
11 72 11 194 l0 183 168 0 c92 0 173 4 181 9 17 11 41 3 41 -13z m11328 14
c-2 -5 2 -9 7 -7 6 1 9 7 7 12 -2 6 2 4 9 -2 10 -10 63 -13 196 -13 l183 0 0
-850 0 -850 230 0 230 0 -2 854 c-2 470 -1 853 1 850 2 -2 11 2 19 9 13 9 14
9 8 0 -6 -10 34 -13 186 -13 l193 0 -2 -1042 c-2 -572 -4 -1043 -6 -1045 -3
-2 -10075 -3 -10129 -1 -9 1 -14 6 -11 11 4 6 -1 8 -11 4 -11 -4 -15 -3 -11 4
4 6 13 8 21 5 12 -5 14 143 14 1026 0 567 1 1032 3 1034 7 7 398 6 405 -1 4
-5 1 -5 -5 -1 -10 6 -13 -166 -13 -843 l0 -851 1670 0 1670 0 0 523 c0 287 0
531 0 542 0 17 6 20 37 18 21 -1 111 -2 201 -2 l162 -1 0 -540 0 -540 1130 0
1131 0 -1 243 c0 133 -1 259 0 280 l0 37 195 0 195 0 0 -22 c0 -13 0 -139 0
-280 l-1 -258 216 0 215 0 0 411 -1 411 190 -2 c116 0 192 3 195 9 4 6 14 7
22 4 15 -5 15 -7 0 -15 -14 -8 -16 -52 -16 -413 l0 -405 210 0 210 0 0 536 c0
299 -4 533 -9 530 -4 -3 -17 4 -27 17 -15 16 -15 19 -2 9 13 -10 67 -13 222
-12 l206 1 0 -541 0 -540 235 0 235 0 -2 843 c-2 631 -6 841 -15 840 -9 -2
-11 12 -4 35 3 7 11 0 9 -8z m9372 0 c3 -1 7 -2 10 -2 6 0 2 -2089 -3 -2095
-9 -8 -2547 -2 -2597 6 -30 5 -67 14 -81 19 -15 6 -35 9 -45 7 -11 -2 -23 -4
-27 -4 -5 -1 -6 -5 -2 -10 3 -5 1 -12 -5 -16 -5 -3 -10 -1 -10 5 0 7 -8 9 -22
4 -40 -12 -77 -13 -508 -14 l-426 0 -13 -97 c-17 -129 -16 -122 -35 -168 -39
-91 -50 -112 -82 -151 -18 -23 -30 -45 -26 -49 4 -5 2 -5 -5 -1 -6 3 -18 -2
-25 -11 -18 -24 -124 -93 -143 -93 -9 0 -14 -3 -12 -7 3 -5 -6 -9 -20 -10 -14
0 -28 -5 -32 -10 -5 -7 -22 -10 -71 -14 -8 -1 -24 -9 -34 -18 -14 -11 -17 -12
-11 -2 7 11 2 13 -25 8 -18 -4 -43 -7 -57 -7 -16 0 -22 -4 -17 -12 6 -10 4
-10 -7 0 -7 6 -35 12 -61 12 l-48 0 0 195 0 195 38 2 c20 0 51 2 67 2 44 2 95
16 95 27 0 6 4 8 8 5 11 -7 92 71 92 87 0 7 -6 19 -12 27 -11 12 -10 12 5 1 9
-7 18 -10 18 -5 1 5 4 20 7 34 3 14 6 364 6 778 l1 752 155 0 c111 0 160 4
169 13 11 10 12 9 6 -1 -5 -10 -1 -13 11 -12 58 6 54 51 54 -540 l0 -540 350
0 c193 1 350 4 350 9 0 4 12 6 28 4 46 -6 54 7 36 60 -9 26 -20 47 -26 47 -5
0 -6 5 -3 10 11 18 -24 62 -43 56 -15 -5 -14 -4 1 8 16 12 16 15 3 29 -8 8
-12 17 -9 21 4 3 1 6 -5 6 -7 0 -11 3 -10 8 4 12 -44 92 -52 87 -4 -3 -7 3 -6
13 0 9 -5 16 -12 14 -8 -1 -11 2 -7 8 3 6 -7 24 -24 40 -16 17 -27 30 -24 30
3 0 -21 27 -53 60 -33 34 -64 58 -71 56 -11 -4 -11 -1 -3 14 6 11 8 20 4 20
-3 0 -2 6 4 13 10 12 122 281 122 292 0 4 -6 3 -12 -1 -7 -4 -10 -4 -6 0 3 4
10 8 15 8 4 0 20 30 34 66 20 50 32 68 48 70 12 2 19 7 17 11 -3 4 1 8 9 8 8
0 12 -4 10 -7 -9 -15 91 4 103 19 8 9 11 11 8 5 -4 -8 50 -10 195 -8 125 2
212 -1 231 -8 23 -8 36 -8 49 0 15 9 17 9 13 -2 -5 -13 40 -28 93 -31 12 0 26
-5 30 -9 4 -5 2 -6 -4 -2 -7 4 -13 5 -13 3 0 -3 16 -15 36 -26 34 -20 38 -21
54 -6 14 12 20 13 26 4 4 -7 3 -10 -3 -6 -6 4 -16 0 -23 -7 -9 -12 -7 -17 12
-27 13 -8 27 -13 32 -14 5 0 10 -8 12 -19 1 -10 11 -28 22 -40 11 -11 26 -38
33 -58 7 -21 16 -38 20 -38 4 0 6 -6 6 -12 -3 -27 15 -108 22 -104 4 3 8 -1 8
-9 0 -8 -4 -12 -7 -10 -4 3 -7 -20 -7 -50 0 -30 3 -52 7 -50 11 7 6 -22 -5
-32 -4 -4 -5 -2 -1 5 4 6 2 12 -4 12 -6 0 -10 -8 -9 -17 2 -10 -8 -52 -21 -93
-13 -41 -24 -79 -25 -85 0 -5 -4 -13 -9 -17 -6 -4 -4 -13 4 -22 11 -14 10 -16
-3 -11 -16 7 -49 -45 -43 -68 1 -7 1 -8 -2 -4 -2 5 -11 -1 -19 -12 -8 -12 -11
-26 -7 -33 4 -7 3 -8 -4 -4 -7 4 -18 -7 -28 -26 -9 -18 -20 -35 -23 -38 -12
-9 -71 -94 -71 -102 0 -4 448 -8 995 -8 l995 0 0 850 0 850 176 0 c103 0 173
4 170 9 -5 8 15 8 34 1z m2431 -6 c2 3 4 -136 4 -307 l0 -312 340 -3 c381 -3
438 -4 445 -13 9 -12 73 -22 66 -11 -3 6 -2 13 4 17 6 4 7 11 4 17 -4 6 -2 8
4 4 6 -3 9 -15 7 -26 -2 -10 3 -24 11 -31 8 -6 14 -8 14 -4 0 3 16 -3 35 -15
19 -12 35 -19 35 -15 0 3 12 -6 28 -20 15 -14 33 -23 40 -20 7 3 11 1 8 -4 -3
-5 16 -29 42 -53 53 -51 71 -77 111 -164 24 -50 42 -115 45 -157 1 -4 8 -12
16 -17 10 -7 11 -10 3 -10 -10 0 -13 -63 -13 -280 l0 -280 620 0 621 0 -4 238
c-4 204 -10 317 -17 317 -1 0 -3 7 -5 16 -6 32 -37 68 -78 91 -41 22 -51 23
-362 28 l-320 5 5 205 c3 113 7 200 8 193 3 -16 552 -19 552 -3 0 6 -5 8 -12
4 -7 -5 -8 -3 -3 6 6 10 11 9 22 -5 11 -16 15 -17 26 -5 10 10 9 11 -2 5 -10
-5 -12 -4 -7 4 4 6 12 9 17 5 5 -3 7 -9 4 -13 -5 -10 83 -24 96 -15 5 3 9 0 9
-5 0 -6 9 -11 20 -11 10 0 44 -9 74 -21 31 -11 59 -21 63 -21 5 -1 14 -8 21
-15 19 -19 36 -5 20 15 -12 15 -11 16 4 4 9 -8 15 -19 12 -25 -2 -7 23 -32 56
-57 33 -25 62 -53 66 -62 3 -10 12 -18 20 -18 8 0 14 -8 14 -17 0 -28 59 -115
72 -107 7 4 8 3 4 -5 -4 -6 -11 -9 -16 -6 -4 3 -6 -4 -3 -15 5 -19 25 -40 22
-23 -3 17 1 24 12 18 7 -5 5 -13 -5 -24 -13 -15 -14 -20 -1 -44 8 -16 9 -25 3
-21 -7 4 -8 3 -4 -5 7 -11 9 -991 2 -998 -3 -3 -727 -4 -2698 -3 l-1038 0 0
195 0 195 230 0 230 0 -2 850 -3 850 193 0 c152 0 192 3 186 13 -6 9 -5 9 8 0
8 -7 17 -11 19 -9z m2385 0 c-1 -8 -5 -17 -9 -20 -13 -13 -8 -329 6 -343 10
-11 10 -13 0 -7 -8 4 -13 1 -13 -8 0 -14 -25 -16 -195 -16 -131 0 -195 3 -195
11 0 5 -6 7 -12 3 -10 -6 -10 -4 0 7 17 18 18 374 0 363 -6 -4 -9 -3 -6 2 4 5
94 7 211 4 147 -4 203 -2 196 6 -5 7 -4 11 5 11 8 0 13 -6 12 -13z m-4123
-1037 c-2 -568 -3 -1038 -3 -1044 0 -16 -396 -19 -402 -3 -1 5 -2 475 0 1044
l2 1035 28 3 c15 2 106 2 202 0 l175 -3 -2 -1032z m-24180 990 c3 -8 -1 -14
-8 -14 -7 0 -11 6 -8 14 3 7 6 13 8 13 2 0 5 -6 8 -13z m-5736 -179 c2 -17 0
-19 -7 -8 -5 8 -6 18 -4 22 8 12 10 10 11 -14z m8123 -186 c0 -5 -7 -9 -15 -9
-8 0 -12 4 -9 9 3 4 9 8 15 8 5 0 9 -4 9 -8z m374 0 c3 -5 -1 -9 -9 -9 -8 0
-12 4 -9 9 3 4 7 8 9 8 2 0 6 -4 9 -8z m1756 -177 c0 -2 -6 -8 -13 -14 -10 -8
-14 -7 -14 2 0 8 6 14 14 14 7 0 13 -1 13 -2z m4497 -10 c0 -8 -4 -12 -9 -9
-5 3 -6 10 -3 15 9 13 12 11 12 -6z m11399 -7 c12 -14 13 -18 3 -10 -9 6 -18
10 -21 7 -2 -3 -5 2 -5 10 0 19 0 19 23 -7z m8064 7 c19 -22 8 -25 -12 -3 -10
10 -14 18 -9 18 5 0 14 -7 21 -15z m-25160 -1 c0 -8 -19 -13 -24 -6 -3 5 1 9
9 9 8 0 15 -2 15 -3z m490 -9 c-12 -14 21 -16 301 -16 283 -1 399 -4 407 -10
1 -1 6 -2 11 -3 5 0 13 -4 17 -8 4 -5 14 -8 22 -8 8 0 49 -17 91 -37 42 -20
80 -36 84 -35 5 1 6 -2 3 -7 -6 -9 22 -26 37 -23 4 1 6 -1 5 -6 -4 -11 63 -81
76 -79 6 1 10 -4 8 -11 -3 -18 30 -72 43 -69 6 1 11 -2 12 -8 0 -5 -2 -9 -6
-8 -7 2 32 -124 42 -133 9 -9 9 -1024 0 -1024 -4 0 -461 -1 -1015 -3 -971 -2
-1007 -1 -1018 17 -8 12 -8 16 -1 11 8 -4 11 129 11 474 0 265 -3 481 -6 481
-3 0 -21 -7 -40 -16 -36 -17 -43 -29 -21 -37 6 -3 2 -4 -10 -4 -12 1 -19 6
-16 11 4 5 -8 0 -25 -13 -18 -12 -32 -27 -32 -32 0 -5 -6 -9 -12 -9 -19 0
-118 -113 -113 -128 3 -7 1 -11 -4 -8 -12 8 -43 -42 -35 -56 4 -7 3 -8 -4 -4
-13 8 -31 -23 -24 -43 3 -8 0 -11 -6 -7 -6 4 -18 -7 -27 -24 -8 -16 -12 -30
-8 -30 5 0 3 -4 -4 -8 -16 -10 -74 -152 -67 -163 3 -5 0 -9 -5 -9 -14 0 -14
-33 -1 -46 7 -7 6 -11 -4 -11 -8 0 -12 5 -9 10 4 6 1 7 -6 2 -7 -4 -11 -16 -8
-26 3 -11 2 -19 -2 -19 -10 0 -28 -60 -26 -87 1 -12 -2 -20 -7 -17 -7 5 -12
-24 -9 -53 1 -6 -3 -14 -9 -18 -15 -9 -12 -28 3 -19 6 4 4 -2 -6 -13 -10 -11
-17 -24 -16 -29 1 -5 -2 -24 -6 -41 l-7 -33 -202 0 -201 0 0 55 c0 30 3 55 6
55 3 0 7 12 7 28 1 15 12 75 25 134 14 63 20 113 15 122 -5 9 -4 18 3 22 8 5
9 3 4 -7 -6 -10 -5 -11 3 -4 6 6 13 22 14 35 2 14 6 27 9 30 12 10 38 103 32
113 -3 5 -2 7 4 4 9 -6 35 52 38 85 1 10 10 27 21 39 12 14 13 19 4 14 -8 -4
-3 5 11 21 24 26 30 37 40 69 1 6 9 16 16 23 7 8 10 18 7 24 -4 6 -2 8 3 5 6
-4 20 8 32 26 36 57 46 69 69 93 13 13 20 29 16 36 -4 6 -3 8 2 5 10 -6 121
101 117 114 -1 3 5 6 14 5 9 0 18 5 21 13 3 8 0 11 -6 7 -6 -3 -14 -1 -18 5
-4 7 -3 9 4 5 6 -3 13 -2 17 4 4 6 10 8 15 5 15 -9 51 15 44 28 -4 7 -4 9 1 5
9 -8 65 22 65 34 0 4 6 8 13 8 18 0 98 55 91 63 -4 3 2 5 12 3 23 -4 137 48
127 58 -4 4 0 4 8 1 9 -3 29 0 45 6 16 7 34 13 39 15 69 17 104 25 125 29 71
14 73 15 59 33 -13 16 -12 16 6 1 11 -9 29 -15 40 -13 11 2 49 6 83 9 35 3 67
7 70 9 4 2 6 -241 4 -540 l-3 -544 616 0 616 0 -3 278 c-3 245 -5 281 -21 310
-11 18 -23 29 -29 26 -6 -4 -8 -2 -4 4 8 14 -44 54 -61 47 -8 -2 -12 -1 -9 4
10 16 -85 21 -365 18 l-279 -2 0 188 c0 118 -4 196 -11 209 -7 13 -7 18 -1 14
6 -3 13 -2 17 4 3 5 9 10 12 10 3 0 0 -7 -7 -15z m565 5 c3 -6 -1 -7 -9 -4
-18 7 -21 14 -7 14 6 0 13 -4 16 -10z m24001 -12 c19 -23 19 -23 -2 -5 -11 9
-24 14 -29 10 -4 -5 -5 -2 -1 5 9 16 10 16 32 -10z m-25156 6 c0 -8 -19 -13
-24 -6 -3 5 1 9 9 9 8 0 15 -2 15 -3z m23550 2 c0 -2 -8 -10 -17 -17 -16 -13
-17 -12 -4 4 13 16 21 21 21 13z m-7948 -728 c2 -392 2 -723 0 -735 l-3 -23
-1030 -2 c-566 -2 -1029 0 -1029 5 0 12 -55 8 -70 -5 -12 -11 -12 -10 -2 3 10
13 4 17 -38 28 -27 7 -53 13 -57 13 -5 0 -20 9 -35 19 -15 11 -30 18 -35 17
-4 -2 -39 26 -77 62 -38 36 -77 64 -87 64 -10 -1 -16 3 -13 7 3 5 10 7 15 4
14 -10 11 11 -5 24 -8 6 -19 25 -26 41 -7 16 -17 27 -22 24 -6 -4 -8 1 -4 14
4 11 1 26 -6 33 -8 8 -15 27 -16 43 -1 16 -10 38 -20 49 -10 13 -11 17 -3 12
11 -7 13 -4 6 11 -5 10 -11 209 -13 441 -3 417 -3 422 17 432 17 9 20 9 15 -3
-5 -13 18 -15 166 -15 143 1 170 4 166 15 -4 12 -2 12 14 4 19 -10 20 -22 20
-410 0 -251 4 -400 10 -400 5 0 7 -6 4 -14 -14 -37 106 -122 161 -112 14 3 25
0 25 -5 0 -5 307 -9 790 -9 l790 0 0 523 c0 287 0 530 0 540 0 16 16 17 195
17 l195 0 2 -712z m48 698 c0 -2 -8 -10 -17 -17 -16 -13 -17 -12 -4 4 13 16
21 21 21 13z m-14176 -47 c-3 -5 -10 -7 -15 -3 -5 3 -7 10 -3 15 3 5 10 7 15
3 5 -3 7 -10 3 -15z m-1988 -75 c-1 -8 -6 -17 -12 -21 -5 -4 -6 -4 -2 1 4 5 3
14 -2 21 -7 8 -5 12 4 12 8 0 13 -6 12 -13z m2180 -14 c0 -12 -4 -16 -9 -11
-5 5 -6 14 -3 20 10 15 12 14 12 -9z m16444 -6 c0 -8 -19 -13 -24 -6 -3 5 1 9
9 9 8 0 15 -2 15 -3z m-20845 -24 c3 -6 -1 -7 -9 -4 -18 7 -21 14 -7 14 6 0
13 -4 16 -10z m20858 -5 c-3 -9 -8 -14 -10 -11 -3 3 -2 9 2 15 9 16 15 13 8
-4z m-18809 -76 c-3 -5 -10 -7 -15 -3 -5 3 -7 10 -3 15 3 5 10 7 15 3 5 -3 7
-10 3 -15z m-80 -50 c-3 -5 -10 -7 -15 -3 -5 3 -7 10 -3 15 3 5 10 7 15 3 5
-3 7 -10 3 -15z m25901 -178 c3 -5 2 -12 -3 -15 -5 -3 -9 1 -9 9 0 17 3 19 12
6z m-8150 -51 c3 -6 -1 -7 -9 -4 -18 7 -21 14 -7 14 6 0 13 -4 16 -10z m34
-14 c9 -11 9 -16 -1 -22 -7 -4 -10 -4 -6 1 4 4 3 14 -3 22 -6 7 -9 13 -6 13 2
0 10 -6 16 -14z m-15732 -21 c0 -8 -4 -12 -9 -9 -5 3 -6 10 -3 15 9 13 12 11
12 -6z m15801 -81 c2 -1 -4 -4 -12 -7 -9 -4 -15 -1 -13 6 1 7 -4 11 -11 9 -8
-1 -11 2 -7 8 5 8 12 7 23 -2 10 -7 18 -13 20 -14z m8056 -23 c-5 -6 -34 20
-34 30 0 5 8 1 18 -8 10 -10 17 -20 16 -22z m-25634 -26 c0 -2 -6 -8 -13 -14
-10 -8 -14 -7 -14 2 0 8 6 14 14 14 7 0 13 -1 13 -2z m17625 -14 c3 -5 2 -12
-3 -15 -5 -3 -9 1 -9 9 0 17 3 19 12 6z m-18235 -15 c0 -2 -7 -7 -16 -10 -8
-3 -12 -2 -9 4 6 10 25 14 25 6z m511 -83 c13 -16 12 -17 -3 -4 -10 7 -18 15
-18 17 0 8 8 3 21 -13z m18684 8 c3 -5 2 -12 -3 -15 -5 -3 -9 1 -9 9 0 17 3
19 12 6z m-20595 -46 c19 -22 8 -25 -12 -3 -10 10 -14 18 -9 18 5 0 14 -7 21
-15z m19787 -130 c0 -8 -4 -12 -9 -9 -5 3 -6 10 -3 15 9 13 12 11 12 -6z
m-3630 -50 c0 -8 -4 -12 -9 -9 -5 3 -6 10 -3 15 9 13 12 11 12 -6z m-14877
-139 c0 -2 -8 -10 -17 -17 -16 -13 -17 -12 -4 4 13 16 21 21 21 13z m14290 -2
c0 -8 -19 -13 -24 -6 -3 5 1 9 9 9 8 0 15 -2 15 -3z m36 -48 c1 -7 -4 -13 -12
-13 -9 0 -11 4 -4 12 5 7 8 15 5 18 -3 4 -2 5 2 2 4 -3 8 -11 9 -19z m-14373
-131 c-3 -9 -8 -14 -10 -11 -3 3 -2 9 2 15 9 16 15 13 8 -4z m13471 -53 c3 -5
-1 -9 -9 -9 -8 0 -12 4 -9 9 3 4 7 8 9 8 2 0 6 -4 9 -8z m8800 0 c3 -5 -1 -9
-9 -9 -8 0 -12 4 -9 9 3 4 7 8 9 8 2 0 6 -4 9 -8z m-22269 -12 c3 -5 1 -10 -4
-10 -6 0 -11 5 -11 10 0 6 2 10 4 10 3 0 8 -4 11 -10z m16892 -25 c0 -8 -4
-12 -9 -9 -5 3 -6 10 -3 15 9 13 12 11 12 -6z m1941 -11 c-1 -5 -9 -9 -16 -10
-10 -2 -11 1 -1 12 12 14 24 13 17 -2z m-1481 -141 c-4 -3 -1 -13 6 -22 11
-14 10 -14 -5 -2 -16 12 -16 31 -1 31 4 0 3 -3 0 -7z m-1567 -264 c0 -100 1
-184 2 -188 0 -3 0 -16 -1 -29 l-1 -22 -201 2 -201 3 2 195 c1 165 3 197 17
210 9 8 13 9 9 2 -6 -10 30 -12 176 -10 145 2 182 6 180 16 -1 8 2 11 7 8 5
-4 10 -86 11 -187z m1455 171 c-3 -5 -12 -10 -18 -10 -7 0 -6 4 3 10 19 12 23
12 15 0z m-9812 -188 c-2 -154 0 -179 15 -197 16 -19 16 -19 0 -6 -16 12 -18
11 -18 -3 0 -14 -22 -16 -200 -16 l-200 0 0 199 0 200 28 3 c15 2 106 2 202 0
l175 -3 -2 -177z m-553 -3 c0 -112 4 -178 10 -174 5 3 3 -6 -4 -20 l-14 -26
-193 -2 -194 -2 0 202 0 203 198 0 197 0 0 -181z m10744 -143 c-6 -15 -28 -16
-41 -1 -4 4 -3 6 2 2 6 -3 17 -2 25 4 20 12 20 11 14 -5z m-2249 -34 c-3 -3
-11 0 -18 7 -9 10 -8 11 6 5 10 -3 15 -9 12 -12z m2095 -18 c0 -8 -19 -13 -24
-6 -3 5 1 9 9 9 8 0 15 -2 15 -3z m-25700 -38 c0 -2 -8 -10 -17 -17 -16 -13
-17 -12 -4 4 13 16 21 21 21 13z m7010 -140 c0 -2 -6 -9 -14 -15 -11 -9 -16
-9 -22 0 -4 7 -3 9 4 5 6 -3 13 -2 17 4 6 10 15 14 15 6z m-6975 -76 c3 -6 -1
-7 -9 -4 -18 7 -21 14 -7 14 6 0 13 -4 16 -10z m9799 -205 c-7 -17 7 -20 22
-5 7 7 11 6 11 -4 0 -8 -4 -13 -8 -10 -19 12 -17 -21 8 -100 15 -49 30 -83 36
-79 6 3 7 1 3 -5 -8 -13 23 -132 34 -132 4 0 8 -10 8 -22 0 -13 19 -81 42
-153 23 -71 53 -166 67 -210 14 -44 33 -89 42 -99 9 -11 11 -16 5 -13 -9 5 -9
-4 -2 -33 6 -22 15 -40 20 -40 6 0 8 -6 5 -13 -8 -21 21 -79 35 -71 7 4 10 4
6 -1 -4 -4 -2 -15 5 -24 11 -14 10 -14 -5 -2 -14 10 -18 11 -18 1 0 -7 8 -19
18 -27 9 -8 11 -11 3 -7 -10 5 -11 1 -6 -17 10 -33 25 -50 38 -42 6 3 7 1 3
-6 -4 -6 -11 -9 -15 -6 -5 2 0 -21 10 -52 11 -31 19 -62 19 -70 0 -8 4 -12 8
-9 5 3 8 -5 8 -17 -1 -15 4 -21 14 -19 11 3 12 0 4 -8 -8 -8 -5 -33 14 -93 14
-45 29 -85 34 -88 5 -3 8 -10 6 -15 -5 -19 25 -103 35 -97 6 3 7 1 3 -6 -10
-15 3 -73 15 -66 5 4 6 0 3 -8 -8 -21 14 -69 28 -61 10 5 10 4 2 -5 -13 -14
-7 -54 6 -46 5 3 6 -3 4 -12 -6 -24 21 -99 34 -96 6 2 9 -8 6 -22 -2 -14 1
-35 8 -48 7 -12 11 -26 10 -30 -3 -12 30 -111 41 -122 7 -7 7 -5 2 4 -6 10 -4
12 4 7 8 -5 9 -12 2 -19 -6 -8 3 -51 28 -127 20 -63 50 -155 65 -205 46 -145
44 -140 64 -122 16 15 18 15 18 -2 0 -12 -5 -17 -15 -13 -10 4 -12 1 -6 -8 5
-9 4 -11 -3 -6 -7 4 -12 3 -12 -3 0 -5 5 -13 10 -16 6 -4 8 -11 5 -16 -4 -5
-2 -9 4 -9 6 0 7 -7 4 -17 -4 -11 -3 -14 5 -9 7 4 10 2 7 -6 -3 -7 4 -42 15
-77 11 -36 18 -66 17 -68 -2 -1 -133 -3 -292 -3 -196 -1 -291 2 -293 10 -2 5
-8 8 -12 5 -5 -3 -12 0 -16 6 -4 8 -3 9 4 5 8 -5 12 1 12 14 0 14 -5 20 -13
17 -8 -3 -14 1 -14 9 0 7 5 11 10 7 5 -3 7 3 4 13 -4 11 -23 75 -43 144 -20
69 -40 126 -44 128 -4 1 -16 10 -26 18 -18 14 -18 15 4 4 17 -8 22 -8 22 3 0
8 -3 17 -7 21 -4 3 -8 13 -10 21 -2 8 -5 23 -7 33 -2 9 -9 16 -17 14 -10 -3
-10 0 1 12 9 12 9 16 1 16 -7 0 -10 4 -6 9 3 5 -1 29 -10 53 -8 24 -15 51 -15
61 0 9 -7 17 -16 17 -14 0 -15 -2 -3 -17 13 -17 13 -17 -7 0 -19 16 -57 17
-482 17 -515 0 -474 6 -487 -70 -3 -18 -10 -41 -16 -52 -5 -10 -7 -23 -4 -28
3 -6 2 -10 -2 -10 -5 0 -17 -29 -26 -64 -20 -76 -20 -79 -5 -70 7 4 8 3 4 -5
-4 -6 -11 -9 -16 -6 -4 3 -11 -7 -14 -23 -4 -15 -9 -35 -13 -46 -4 -13 -1 -17
8 -12 8 4 6 1 -3 -6 -9 -8 -18 -27 -20 -44 -2 -16 -7 -32 -11 -35 -4 -3 -10
-19 -12 -35 -2 -16 -4 -30 -6 -31 -1 -2 -2 -6 -3 -10 -1 -5 -5 -14 -10 -22 -6
-9 -5 -12 1 -8 6 4 3 -9 -5 -28 l-16 -35 -266 0 c-199 0 -269 -3 -279 -12 -9
-9 -12 -9 -7 -1 3 6 2 13 -3 15 -6 2 -7 17 -2 40 6 24 5 40 -3 48 -8 8 -7 9 7
5 9 -4 17 -3 17 1 0 5 3 20 7 33 5 18 3 22 -7 16 -9 -5 -11 -4 -6 4 4 6 12 8
18 5 7 -5 9 0 6 14 -4 12 -3 20 2 17 4 -3 10 5 13 16 4 16 2 19 -11 15 -14 -5
-14 -3 2 8 10 9 15 20 10 27 -4 7 -3 10 3 6 13 -8 27 39 17 55 -4 6 -3 8 4 4
9 -5 23 32 24 61 0 5 3 13 7 18 17 21 22 68 9 77 -10 8 -9 9 3 5 13 -4 21 8
35 56 19 62 19 74 3 70 -4 -2 -6 4 -2 13 4 11 8 12 13 4 10 -16 64 146 54 162
-4 7 -3 9 1 5 5 -4 20 27 33 70 13 43 35 114 49 158 14 44 26 90 27 102 0 11
4 19 9 16 4 -2 8 3 8 11 2 18 3 25 12 46 27 70 57 182 51 191 -4 8 -3 9 4 5 8
-5 12 1 12 14 0 13 -4 19 -12 14 -7 -4 -8 -3 -4 5 4 6 11 9 15 7 4 -3 20 33
35 80 22 68 25 88 15 100 -9 12 -9 13 2 9 11 -4 22 18 42 82 15 49 42 132 60
186 27 85 30 99 17 108 -13 9 -12 10 3 5 11 -3 17 0 18 9 2 18 4 25 12 45 4 8
13 34 21 56 13 37 13 43 -2 60 -15 16 -15 17 -1 6 14 -11 18 -8 28 19 10 29 9
30 -7 18 -14 -12 -14 -10 1 8 11 12 16 27 11 34 -4 7 -3 10 4 5 13 -8 46 88
38 110 -3 8 -2 12 4 9 9 -6 11 -1 14 38 1 6 4 14 8 17 4 3 9 17 10 30 2 14 6
27 9 30 3 3 19 50 37 105 21 68 28 103 21 111 -7 8 -6 15 2 20 8 4 9 3 5 -4
-4 -7 -3 -12 1 -12 5 0 17 29 27 65 l18 65 364 0 c319 0 363 -2 358 -15z
m5444 -530 c-2 -300 -1 -539 1 -533 2 7 10 17 17 21 8 4 14 13 14 20 1 7 13
21 27 32 14 11 35 29 47 40 11 11 23 20 26 20 17 2 70 37 65 44 -3 5 3 7 13 4
11 -2 26 3 35 12 9 8 19 16 22 15 24 -1 35 1 32 8 -3 4 5 8 16 9 51 4 93 17
111 32 11 9 16 10 12 3 -6 -9 0 -11 21 -8 15 3 46 6 68 7 22 2 46 8 54 13 11
8 13 8 8 -1 -8 -12 88 -17 107 -5 18 11 35 11 33 -1 -2 -11 63 -25 102 -22 11
1 17 -3 14 -8 -4 -6 5 -8 20 -5 15 3 24 1 21 -3 -3 -5 0 -9 6 -9 14 0 173 -62
180 -70 3 -3 25 -18 50 -32 25 -14 61 -40 80 -56 19 -17 38 -28 42 -26 5 3 7
2 6 -3 -5 -14 46 -64 60 -58 7 2 10 0 7 -5 -8 -13 44 -82 56 -74 5 3 6 -2 3
-10 -4 -9 1 -18 10 -22 9 -3 13 -10 10 -15 -3 -5 -1 -9 3 -9 5 0 18 -7 29 -15
19 -15 19 -15 -1 -8 -18 6 -18 5 3 -28 12 -19 27 -33 33 -31 6 1 8 -2 4 -7 -7
-13 5 -62 14 -57 4 3 7 -3 8 -13 2 -26 43 -144 56 -160 9 -11 9 -13 0 -8 -9 6
-9 -1 -2 -25 5 -18 9 -34 9 -36 0 -2 6 0 13 4 8 6 8 3 -2 -9 -9 -11 -11 -26
-5 -44 9 -33 12 -373 3 -367 -3 2 -9 -18 -12 -44 -7 -51 -8 -59 -32 -145 -13
-49 -14 -62 -3 -75 11 -15 11 -15 -3 -5 -13 10 -19 4 -42 -43 -15 -30 -24 -60
-21 -66 4 -7 2 -8 -4 -4 -11 7 -16 -7 -15 -41 1 -7 -4 -10 -9 -7 -6 4 -14 0
-19 -7 -12 -19 -11 -32 1 -24 16 10 11 -1 -7 -16 -14 -12 -16 -12 -8 0 18 31
-13 0 -41 -40 -16 -24 -51 -63 -78 -88 -28 -25 -59 -55 -70 -66 -12 -11 -23
-20 -26 -20 -14 -1 -68 -40 -64 -47 3 -4 -2 -5 -10 -2 -9 3 -16 1 -16 -5 0 -6
-3 -10 -7 -9 -5 2 -23 -3 -41 -11 -25 -11 -30 -16 -20 -23 10 -8 9 -9 -3 -5
-20 7 -192 -46 -185 -56 3 -4 1 -3 -6 3 -8 6 -16 4 -25 -8 -8 -9 -12 -11 -8
-5 5 10 -4 11 -37 7 -37 -5 -82 -5 -280 0 -21 1 -38 4 -38 8 0 4 -8 7 -17 7
-30 1 -58 7 -71 15 -7 4 -20 5 -28 2 -8 -3 -12 -1 -9 4 7 11 -39 25 -54 16 -5
-4 -13 -1 -17 5 -4 8 -3 9 4 5 7 -4 12 -5 12 -2 0 9 -60 37 -60 29 0 -5 -4 -3
-8 2 -11 17 -146 110 -155 107 -4 -1 -6 1 -5 5 4 16 -23 53 -34 47 -6 -4 -8
-3 -5 2 3 5 -4 21 -15 34 -11 14 -17 19 -13 12 11 -20 6 -237 -5 -240 -6 -2
-7 -9 -3 -15 4 -8 1 -7 -9 1 -12 10 -72 12 -247 12 l-231 -1 0 1408 c0 774 0
1414 0 1421 0 9 61 12 270 12 l271 0 -3 -545z m3422 518 c0 -16 0 -547 0
-1180 l0 -1153 510 0 510 0 0 -240 c0 -162 -3 -240 -11 -240 -5 0 -7 -6 -3
-12 6 -10 4 -10 -7 0 -10 9 -179 12 -776 12 l-763 0 -2 1398 c-2 768 -2 1407
0 1420 l3 22 270 0 269 0 0 -27z m1465 17 c3 -6 -1 -7 -9 -4 -18 7 -21 14 -7
14 6 0 13 -4 16 -10z m204 -1 c31 -6 62 -16 69 -21 6 -6 12 -7 12 -2 0 4 5 3
11 -3 6 -6 19 -9 28 -6 10 3 12 2 5 -4 -8 -5 2 -21 31 -49 28 -27 47 -38 53
-32 6 6 12 6 17 -1 3 -6 1 -10 -6 -9 -17 4 -22 -18 -7 -34 7 -7 15 -20 18 -28
8 -28 8 -240 -1 -234 -8 5 -13 -9 -10 -28 0 -5 -3 -8 -8 -8 -5 0 -12 -8 -16
-17 -3 -10 -24 -38 -47 -63 -23 -25 -38 -38 -34 -30 4 8 0 6 -8 -4 -9 -11 -16
-17 -16 -13 0 4 -15 0 -32 -9 -48 -25 -117 -31 -200 -18 -21 3 -43 2 -50 -2
-16 -11 -42 -15 -33 -6 4 4 11 8 16 8 5 1 12 2 15 3 3 0 -24 21 -61 45 -41 28
-74 43 -87 41 -11 -3 -17 -1 -14 3 4 4 12 8 17 8 5 1 12 2 15 3 3 0 -9 19 -26
41 -18 23 -30 44 -27 47 4 3 2 14 -4 25 -17 32 -14 139 6 198 11 30 18 60 16
65 -1 5 0 7 4 3 3 -3 25 14 48 39 40 44 103 84 141 90 11 2 21 5 23 6 8 9 93
6 142 -4z m7673 -219 c2 -127 2 -235 0 -240 -2 -6 -133 -10 -358 -10 l-354 0
0 -1180 0 -1180 -250 -1 c-137 -1 -261 -1 -275 -2 l-26 -1 1 1182 0 1182 -352
0 -353 0 2 222 c2 123 3 231 3 241 0 16 53 17 980 17 l979 0 3 -230z m-21130
186 c7 4 8 2 4 -5 -9 -13 -26 -5 -25 12 0 9 2 8 6 -1 2 -6 10 -9 15 -6z
m13183 -16 c-3 -5 -12 -10 -18 -10 -7 0 -6 4 3 10 19 12 23 12 15 0z m495 -24
c0 -2 -8 -10 -17 -17 -16 -13 -17 -12 -4 4 13 16 21 21 21 13z m-20273 -703
c0 -9 -4 -10 -14 -2 -7 6 -13 12 -13 14 0 1 6 2 13 2 8 0 14 -6 14 -14z
m12936 -39 c44 -6 81 -6 86 -1 5 5 12 3 16 -4 6 -8 4 -10 -6 -4 -9 5 -11 5 -4
-2 16 -16 102 -36 116 -28 8 5 10 4 5 -3 -4 -6 6 -18 24 -27 26 -14 34 -14 48
-3 15 11 15 11 5 -2 -10 -13 -8 -18 8 -28 22 -14 43 -7 33 10 -4 7 -2 8 5 4 8
-6 9 -12 2 -20 -8 -9 -3 -18 19 -34 16 -12 33 -22 39 -22 5 0 12 -7 15 -16 3
-8 10 -13 15 -10 5 3 8 -2 7 -12 0 -9 5 -16 12 -14 6 1 11 -1 10 -5 -1 -5 7
-23 19 -42 l21 -33 0 33 c-1 19 0 73 1 122 l1 87 245 0 245 0 0 -970 c0 -533
1 -973 3 -977 2 -9 -457 -21 -481 -12 -14 5 -16 22 -14 134 2 116 1 127 -13
110 -8 -11 -15 -23 -15 -27 0 -4 -11 -19 -26 -33 -22 -22 -26 -53 -4 -40 5 3
11 1 14 -4 7 -10 -13 -9 -30 1 -6 4 -32 -11 -59 -33 -26 -22 -55 -43 -63 -48
-8 -5 -12 -14 -8 -20 4 -6 11 -9 15 -7 4 3 8 -1 8 -9 0 -10 -4 -12 -12 -5 -7
5 -15 6 -19 2 -4 -4 -7 -2 -6 3 5 23 -2 25 -27 8 -16 -11 -47 -25 -71 -33 -31
-10 -41 -18 -37 -28 4 -11 2 -12 -8 -4 -10 8 -24 8 -53 0 -21 -6 -42 -11 -46
-10 -5 1 -8 -1 -8 -5 0 -5 -28 -9 -61 -10 -34 -2 -67 -7 -74 -13 -8 -7 -15 -7
-19 -1 -3 5 -21 9 -40 9 -26 0 -33 -4 -31 -16 3 -22 -4 -34 -16 -26 -6 4 -6
11 2 20 6 8 10 14 8 15 -2 0 -17 3 -34 6 -16 3 -47 6 -67 7 -21 1 -38 5 -38 9
0 4 -6 7 -12 5 -7 -1 -46 8 -86 20 -40 13 -78 20 -84 16 -7 -4 -8 -3 -4 4 4 7
1 12 -6 12 -7 0 -33 11 -58 25 -25 13 -56 30 -70 37 -14 7 -36 23 -50 35 -14
13 -30 23 -36 23 -7 0 -15 7 -18 16 -3 8 -11 12 -17 8 -7 -4 -9 -3 -6 3 4 6
-19 35 -51 64 -31 30 -57 56 -57 59 0 3 -16 28 -35 55 -68 99 -146 298 -165
423 -5 28 -11 40 -18 35 -7 -4 -6 0 1 10 10 11 11 24 5 42 -4 13 -4 96 1 182
4 87 9 174 10 195 0 20 4 34 8 32 3 -2 9 15 13 38 4 24 20 73 35 109 21 51 25
70 17 79 -9 8 -8 10 3 5 14 -5 34 27 37 59 1 5 5 12 10 15 15 10 55 71 47 71
-4 0 3 8 14 19 12 10 19 20 17 23 -3 3 6 13 20 22 15 10 24 23 21 31 -3 8 0
17 6 21 7 4 8 3 4 -4 -15 -24 10 -11 40 21 40 41 94 87 104 87 4 0 25 17 46
38 21 20 32 29 24 19 -13 -18 -13 -18 22 0 20 10 33 22 30 27 -3 5 -1 6 5 3 5
-3 42 7 82 23 40 17 82 30 93 30 10 0 17 3 15 8 -3 4 9 8 26 8 18 1 48 4 67 7
19 3 70 6 112 7 44 0 80 5 84 11 4 7 9 7 13 2 3 -5 41 -14 84 -19z m3027 11
c19 -22 8 -25 -12 -3 -10 10 -14 18 -9 18 5 0 14 -7 21 -15z m7965 5 c-4 -6 7
-11 24 -11 17 -1 37 -2 44 -3 6 -1 19 4 29 12 12 10 18 11 24 1 4 -7 3 -10 -4
-5 -6 3 -13 2 -17 -4 -3 -5 0 -11 7 -12 23 -2 32 -4 78 -17 25 -8 50 -14 55
-15 6 -1 42 -16 80 -35 54 -25 74 -30 87 -22 12 8 19 7 24 -1 4 -6 3 -8 -4 -4
-6 3 -13 3 -16 -2 -3 -5 13 -19 34 -33 22 -13 40 -27 40 -31 0 -5 4 -8 9 -8 4
0 25 -16 46 -35 31 -30 40 -34 54 -23 13 10 14 10 4 -1 -9 -11 -5 -23 24 -58
20 -24 41 -42 48 -39 6 2 12 -2 12 -10 0 -7 -4 -11 -9 -8 -5 3 6 -15 23 -40
28 -39 35 -44 48 -33 14 10 14 10 4 -4 -11 -13 -9 -24 11 -62 13 -26 26 -43
30 -40 4 4 4 0 1 -9 -4 -9 -1 -27 6 -40 7 -13 14 -32 16 -42 2 -10 11 -25 21
-33 9 -8 11 -11 3 -7 -9 5 -12 1 -8 -12 22 -73 30 -111 28 -123 -1 -7 2 -10 7
-7 5 3 7 -5 5 -17 -7 -42 12 -152 26 -149 7 1 10 -2 6 -8 -3 -6 -11 -8 -16 -5
-5 4 -9 -29 -9 -80 0 -47 4 -84 8 -81 5 3 9 -1 9 -9 0 -8 -4 -12 -9 -9 -4 3
-11 -9 -14 -26 -4 -17 -11 -33 -17 -37 -6 -3 -7 -1 -3 6 6 9 -162 11 -703 11
-608 -1 -711 -3 -711 -15 0 -22 38 -119 56 -141 8 -10 12 -13 8 -5 -5 10 -3
12 5 7 7 -5 10 -14 8 -20 -7 -17 42 -78 55 -70 6 4 8 2 4 -4 -8 -13 65 -74 82
-67 7 3 11 1 8 -3 -3 -5 10 -16 28 -25 26 -12 36 -13 46 -4 10 9 11 9 6 -1
-10 -17 21 -27 39 -12 13 11 14 10 10 -2 -8 -19 16 -24 125 -27 48 -1 87 2 95
9 9 8 15 8 20 0 3 -6 10 -8 15 -5 4 2 25 7 46 11 48 7 56 12 48 27 -5 9 -4 9
6 0 10 -9 24 -6 64 14 71 35 118 72 110 86 -4 7 -3 9 1 4 5 -4 30 13 56 39 37
36 50 44 64 37 9 -6 16 -14 15 -19 -1 -5 4 -10 12 -12 10 -3 10 -2 -1 6 -9 7
-10 12 -2 16 11 7 15 -5 12 -32 -1 -7 5 -15 14 -18 8 -3 15 -11 15 -18 0 -16
135 -148 143 -140 4 4 7 1 7 -6 0 -8 18 -30 39 -50 l40 -37 -18 -29 c-10 -16
-30 -40 -44 -53 -15 -13 -24 -28 -21 -33 3 -5 0 -7 -8 -6 -7 2 -12 -4 -10 -12
2 -8 0 -12 -3 -8 -4 4 -30 -12 -57 -36 -28 -24 -79 -61 -114 -81 -56 -33 -63
-40 -52 -54 11 -14 11 -14 -2 -5 -20 15 -48 10 -67 -13 -8 -10 -11 -12 -7 -4
6 11 3 13 -12 7 -10 -5 -50 -17 -89 -28 -38 -10 -77 -22 -85 -25 -8 -2 -36 -6
-62 -7 -26 -2 -55 -9 -64 -17 -10 -8 -15 -9 -11 -2 5 8 -17 12 -85 12 -108 1
-197 7 -218 15 -12 4 -64 17 -149 38 -7 1 -34 13 -60 24 -35 17 -49 19 -60 10
-11 -8 -13 -8 -8 0 8 13 -19 27 -34 18 -5 -3 -8 0 -7 7 2 6 -3 14 -11 17 -9 3
-11 0 -6 -8 5 -9 4 -11 -4 -6 -6 4 -9 12 -6 17 4 5 2 9 -4 9 -5 0 -17 7 -26
16 -12 12 -19 13 -29 5 -10 -9 -16 -9 -21 -1 -4 6 -2 9 3 8 6 -2 9 2 9 7 -2
10 -97 90 -109 90 -3 0 -10 4 -15 9 -5 6 -2 6 7 1 13 -8 13 -6 1 8 -7 9 -18
14 -25 10 -6 -3 -8 -3 -4 2 4 4 3 14 -3 22 -13 15 -33 18 -24 3 10 -16 -1 -11
-16 7 -10 11 -10 14 -1 9 22 -13 12 9 -20 44 -17 19 -45 60 -61 90 -32 59 -45
72 -61 63 -5 -3 -6 -1 -2 6 4 6 12 9 17 6 5 -4 4 5 -2 19 -7 14 -16 23 -22 19
-6 -3 -7 -1 -4 4 4 6 -5 44 -19 84 -14 41 -28 88 -30 104 -3 17 -8 37 -11 45
-7 18 -12 62 -13 113 -1 21 -5 35 -11 32 -5 -4 -6 -11 -3 -17 5 -7 2 -8 -5 -4
-9 6 -8 12 4 26 12 13 15 38 14 116 0 54 -4 104 -7 109 -10 16 -11 35 -2 40 5
3 7 -4 5 -15 -2 -11 -1 -20 4 -20 4 0 12 30 18 67 11 59 10 70 -5 88 -9 11
-10 14 -2 8 20 -18 32 -16 29 5 -1 9 6 35 16 57 10 22 22 51 28 65 5 14 13 32
17 41 5 9 4 21 -1 26 -6 6 -4 15 8 24 17 13 17 13 3 -6 -15 -20 -14 -20 8 -1
12 11 20 21 17 24 -2 2 12 24 32 48 19 24 32 44 28 44 -5 0 2 9 14 19 13 11
24 28 25 38 2 10 7 18 13 18 6 0 35 23 65 50 30 28 66 59 80 70 13 11 17 16 9
10 -14 -8 -14 -8 -4 6 7 9 9 20 5 25 -4 4 1 2 10 -5 14 -11 22 -10 48 5 28 17
34 27 31 47 -1 5 3 6 9 2 6 -3 8 -11 5 -16 -3 -5 1 -6 9 -3 9 3 16 10 16 15 0
5 3 8 8 7 13 -4 52 13 52 23 0 5 3 8 8 7 13 -5 131 35 127 42 -3 5 2 11 11 14
8 3 12 2 9 -4 -3 -6 -4 -10 -2 -10 5 0 92 17 127 25 14 3 73 6 133 7 59 0 110
5 113 9 3 5 7 9 10 9 3 0 2 -4 -1 -10z m4922 -26 c41 -6 66 -7 70 -1 4 6 1 7
-7 2 -9 -5 -11 -4 -6 4 4 6 12 9 17 5 5 -3 7 -9 4 -13 -2 -5 28 -19 68 -31 39
-13 94 -34 121 -47 26 -14 45 -20 41 -14 -3 7 0 8 9 5 9 -3 14 -9 11 -14 -2
-4 12 -16 33 -26 20 -10 45 -27 56 -36 11 -10 23 -18 26 -18 4 0 23 -16 44
-36 21 -21 41 -32 49 -28 6 4 9 4 5 0 -3 -4 1 -16 10 -25 10 -10 35 -41 56
-69 22 -28 43 -49 48 -46 4 3 5 -1 3 -9 -3 -7 5 -25 19 -40 13 -14 22 -28 20
-30 -3 -2 2 -10 11 -17 8 -7 15 -16 15 -21 0 -5 11 -32 25 -61 14 -28 25 -58
25 -66 0 -9 6 -12 16 -8 13 5 14 3 6 -7 -8 -9 -8 -24 1 -55 7 -24 15 -40 18
-37 3 2 3 -9 1 -26 -3 -20 -1 -30 6 -26 5 4 16 -1 23 -11 13 -16 13 -16 -5 -2
-19 14 -19 13 -11 -25 4 -22 8 -107 9 -190 1 -120 4 -152 16 -163 13 -10 13
-11 -2 -6 -20 7 -25 -3 -32 -61 -5 -42 -49 -188 -66 -218 -6 -10 -8 -23 -4
-29 4 -6 3 -8 -3 -5 -12 8 -26 -20 -17 -34 3 -5 10 -6 16 -3 7 4 8 2 4 -5 -6
-9 -11 -9 -21 -1 -15 12 -30 -14 -18 -33 11 -18 12 -38 2 -31 -5 3 -7 9 -4 14
3 5 1 11 -5 15 -6 3 -13 -2 -17 -12 -3 -10 -13 -26 -21 -35 -8 -10 -11 -18 -7
-18 4 0 -3 -10 -16 -23 -13 -13 -47 -48 -74 -77 -28 -30 -69 -70 -93 -88 -23
-19 -39 -38 -36 -44 4 -6 1 -9 -7 -6 -14 5 -88 -36 -101 -56 -4 -6 -8 -8 -8
-4 0 4 -38 -11 -85 -33 -47 -21 -92 -39 -101 -39 -9 0 -12 -5 -8 -12 4 -7 3
-8 -5 -4 -11 7 -121 -12 -131 -23 -5 -6 -39 -8 -175 -12 -44 -1 -86 -7 -94
-13 -11 -8 -13 -8 -8 1 8 12 -104 30 -122 18 -6 -3 -11 -2 -11 4 0 5 -8 10
-17 10 -19 0 -22 0 -91 20 -23 6 -47 9 -52 6 -6 -3 -10 -1 -10 6 0 8 -4 8 -15
-1 -13 -11 -14 -10 -9 4 6 15 -8 20 -53 19 -7 -1 -11 3 -8 7 5 9 -84 56 -97
52 -5 -1 -8 2 -8 6 0 12 -49 34 -60 27 -5 -3 -12 0 -16 6 -4 8 -3 9 4 5 7 -4
12 -4 12 1 -1 15 -51 45 -66 39 -9 -4 -12 -2 -8 5 8 14 -56 80 -70 72 -6 -3
-8 -2 -3 2 10 11 -33 56 -46 48 -6 -3 -7 -1 -4 4 4 6 -11 33 -33 61 -22 27
-40 54 -40 59 0 6 -11 22 -24 36 -13 14 -22 28 -20 30 2 2 -6 28 -20 58 -24
55 -38 88 -41 102 -2 4 -4 9 -5 12 -3 6 -2 4 -15 60 -8 39 -10 48 -15 63 -1 4
-3 18 -3 32 -1 16 -7 24 -16 22 -12 -3 -12 0 -2 12 11 13 11 45 -1 121 -1 6 2
34 6 63 5 43 4 52 -6 46 -10 -6 -10 -5 -2 7 6 8 11 31 10 51 -1 21 2 34 7 31
6 -3 8 7 5 26 -2 17 -1 31 3 31 3 0 9 11 11 25 5 26 -13 50 -27 37 -5 -4 -5
-1 -1 6 6 10 11 10 21 2 10 -9 16 0 29 41 8 29 12 57 9 62 -3 6 -1 7 5 3 7 -4
12 -2 12 4 0 7 14 42 32 78 17 37 31 72 31 79 0 7 4 10 8 8 6 -4 46 53 45 65
-1 7 187 195 195 195 4 0 20 11 36 25 16 14 36 26 44 28 8 2 21 9 29 16 8 7
34 21 57 31 37 15 41 20 30 34 -11 14 -10 14 5 2 15 -11 23 -11 50 0 18 7 39
20 46 29 9 10 11 11 6 1 -5 -10 -3 -13 9 -8 8 3 32 9 51 13 36 6 60 24 34 24
-10 0 -9 3 2 9 17 11 33 4 24 -10 -6 -10 28 -7 96 7 14 3 80 6 148 5 94 0 121
2 115 12 -4 7 1 5 12 -3 10 -8 47 -20 82 -26z m5184 27 c0 10 2 11 6 2 2 -7
14 -13 24 -13 14 0 18 4 13 13 -6 9 -5 9 7 1 8 -7 39 -12 70 -12 31 0 62 -3
68 -7 7 -4 18 -4 26 -1 7 2 15 1 17 -3 2 -4 16 -11 32 -15 24 -6 28 -5 20 6
-5 8 -2 7 6 -3 15 -16 79 -41 91 -36 4 1 15 -5 25 -14 19 -17 83 -53 95 -54 4
0 16 -11 27 -25 18 -22 22 -23 38 -10 17 14 18 13 7 -1 -11 -13 -9 -20 11 -38
14 -13 29 -20 34 -17 6 3 8 -2 6 -11 -3 -11 10 -34 36 -60 22 -24 38 -43 35
-43 -3 0 2 -13 12 -30 9 -16 20 -30 23 -30 3 0 7 -11 8 -24 1 -16 -7 -29 -24
-40 -13 -9 -22 -21 -19 -26 3 -4 -3 -7 -12 -6 -10 2 -43 -13 -73 -32 -30 -19
-77 -48 -105 -63 -27 -16 -49 -33 -47 -39 1 -6 -3 -8 -9 -5 -6 4 -25 -3 -42
-15 -27 -21 -31 -21 -42 -7 -7 9 -16 13 -20 9 -5 -4 -5 -2 -2 4 8 14 -16 37
-27 27 -4 -4 -4 1 0 10 8 21 -43 80 -59 70 -6 -3 -7 -1 -4 4 9 14 -19 37 -33
28 -6 -4 -9 -3 -8 2 2 4 -1 9 -6 10 -5 1 -12 7 -17 15 -5 7 -12 13 -16 14 -4
0 -20 6 -34 12 -29 12 -47 11 -68 -2 -9 -6 -12 -5 -8 1 5 7 -9 10 -41 8 -26
-1 -47 -3 -47 -4 0 -2 -8 -4 -17 -6 -40 -8 -96 -73 -82 -96 3 -5 0 -9 -5 -9
-6 0 -11 -12 -11 -26 0 -14 4 -22 10 -19 6 3 7 -1 4 -10 -4 -8 1 -26 10 -40
22 -34 92 -79 107 -69 8 4 9 3 5 -4 -4 -7 26 -28 84 -57 49 -25 90 -42 90 -38
0 5 4 4 8 -2 14 -20 94 -57 112 -52 12 3 17 0 14 -8 -3 -7 11 -19 33 -29 38
-16 53 -25 105 -59 15 -10 33 -15 39 -11 7 4 9 3 6 -3 -8 -13 82 -85 96 -76 5
3 7 1 4 -4 -7 -12 16 -36 25 -27 3 3 9 0 14 -7 4 -8 3 -10 -4 -5 -23 14 -12
-9 21 -44 17 -19 33 -37 33 -40 11 -44 17 -50 33 -38 14 12 14 11 2 -4 -7 -10
-10 -26 -6 -35 3 -10 6 -18 6 -18 0 0 6 -22 14 -48 15 -49 18 -307 4 -307 -13
0 -18 -44 -6 -52 8 -5 7 -8 -4 -8 -9 0 -20 -7 -23 -16 -5 -12 -3 -14 7 -8 7 5
6 2 -3 -6 -28 -27 -71 -110 -64 -123 4 -6 3 -9 -1 -4 -10 9 -55 -31 -55 -49 0
-7 -5 -16 -12 -20 -7 -5 -8 -3 -2 7 6 10 2 10 -16 -2 -14 -9 -25 -26 -25 -38
0 -24 -3 -25 -29 -15 -13 5 -23 1 -32 -11 -8 -10 -14 -16 -14 -12 0 4 -17 -1
-38 -12 -45 -23 -182 -66 -199 -63 -7 2 -13 -1 -13 -5 0 -4 -32 -9 -72 -11
-39 -1 -78 -8 -87 -15 -8 -6 -12 -7 -8 -1 5 10 -49 15 -175 18 -21 0 -38 5
-38 10 0 5 -3 7 -6 4 -3 -4 -38 5 -77 18 -39 13 -78 22 -85 19 -7 -2 -10 0 -7
5 3 5 -5 12 -19 16 -14 3 -30 12 -37 20 -6 8 -15 11 -21 8 -5 -3 -4 -11 2 -19
13 -16 4 -39 -11 -30 -5 4 -7 18 -4 33 3 22 -2 31 -28 49 -18 12 -50 40 -72
62 -22 21 -43 37 -46 35 -3 -2 -6 2 -6 9 0 20 -70 116 -79 109 -4 -4 -4 -2 -1
4 4 7 1 27 -7 45 -19 48 -28 74 -25 74 1 0 -3 10 -10 23 -7 12 -17 20 -23 16
-7 -5 -8 -2 -3 5 5 9 10 10 18 2 14 -14 30 -14 22 -1 -4 6 -3 9 2 8 14 -4 53
13 53 23 0 6 3 8 8 6 11 -7 137 69 135 81 -2 6 4 9 13 5 8 -3 26 5 41 18 14
13 23 19 19 12 -4 -7 21 3 54 22 l61 34 9 -23 c5 -13 14 -27 20 -31 5 -3 8
-10 5 -15 -10 -17 15 -52 32 -46 12 5 13 3 5 -7 -8 -10 -1 -24 29 -60 22 -26
45 -47 50 -47 6 0 17 -7 26 -16 9 -8 22 -13 30 -10 8 3 12 2 9 -3 -9 -14 23
-23 96 -27 70 -3 145 15 141 35 -2 5 3 8 11 5 25 -10 59 54 63 117 3 57 3 58
-44 106 -27 26 -77 63 -112 82 -56 30 -67 32 -85 21 -19 -12 -20 -12 -7 3 12
15 10 18 -15 27 -16 6 -41 17 -56 26 -16 8 -28 12 -28 9 0 -4 -12 3 -26 14
-15 11 -30 18 -35 15 -5 -3 -9 -1 -9 4 0 4 -23 18 -52 31 -41 18 -53 20 -59 9
-7 -11 -9 -11 -9 0 0 7 -5 10 -12 6 -7 -4 -8 -3 -4 5 4 6 12 9 17 6 5 -4 9 -4
9 -2 0 6 -98 77 -105 77 -2 0 -2 -7 1 -15 4 -8 11 -12 18 -8 6 4 5 -1 -3 -10
-17 -21 -28 -15 -26 15 3 26 -82 121 -98 111 -6 -4 -7 -1 -3 6 5 7 1 20 -7 29
-8 9 -20 32 -28 50 -8 17 -18 32 -22 32 -5 0 -6 3 -4 8 3 4 0 18 -6 32 -5 14
-12 36 -14 50 -11 85 -13 89 -35 85 -11 -3 -17 -1 -14 3 4 4 13 7 19 7 8 0 12
25 12 78 0 42 3 77 6 77 4 0 10 17 14 38 9 48 43 129 71 167 12 17 20 38 19
48 -2 9 1 14 7 11 11 -7 90 65 83 76 -2 4 1 7 8 7 7 0 36 16 64 36 29 20 63
39 77 43 14 3 26 10 26 16 0 5 -4 6 -10 3 -6 -4 -7 1 -3 11 4 11 8 13 11 6 2
-7 9 -9 14 -6 7 4 8 2 4 -4 -4 -7 10 -5 36 4 52 19 58 20 130 29 39 5 55 11
51 19 -4 6 1 5 10 -3 14 -11 17 -11 18 0z m-20951 -7 c0 -8 -19 -13 -24 -6 -3
5 1 9 9 9 8 0 15 -2 15 -3z m2223 -7 c4 3 7 4 7 1 0 -3 -8 -12 -17 -19 -10 -7
-15 -9 -11 -5 4 5 2 16 -5 25 -10 14 -10 14 4 4 9 -7 19 -10 22 -6z m13587 7
c0 -8 -19 -13 -24 -6 -3 5 1 9 9 9 8 0 15 -2 15 -3z m-15733 -19 c0 -8 -4 -12
-9 -9 -5 3 -6 10 -3 15 9 13 12 11 12 -6z m21263 5 c8 -5 11 -10 5 -10 -5 0
-17 5 -25 10 -8 5 -10 10 -5 10 6 0 17 -5 25 -10z m-10253 -17 c0 -9 -4 -10
-14 -2 -7 6 -13 12 -13 14 0 1 6 2 13 2 8 0 14 -6 14 -14z m4843 13 c0 -2 -8
-10 -17 -17 -16 -13 -17 -12 -4 4 13 16 21 21 21 13z m-5539 -29 c-10 -9 -11
-8 -5 6 3 10 9 15 12 12 3 -3 0 -11 -7 -18z m4789 19 c0 -2 -7 -7 -16 -10 -8
-3 -12 -2 -9 4 6 10 25 14 25 6z m6160 -11 c0 -2 -6 -5 -13 -8 -8 -3 -14 1
-14 8 0 7 6 11 14 8 7 -3 13 -6 13 -8z m-19200 1 c0 -2 -7 -7 -16 -10 -8 -3
-12 -2 -9 4 6 10 25 14 25 6z m-3579 -236 c1 -115 2 -217 2 -225 0 -8 -1 -19
-2 -25 -1 -6 -77 -10 -206 -10 l-205 0 0 -745 c0 -668 -2 -745 -16 -745 -9 0
-12 -5 -8 -12 6 -10 4 -10 -7 0 -9 9 -71 12 -232 12 -172 0 -217 -3 -211 -12
5 -8 0 -7 -11 2 -10 8 -20 14 -22 13 -1 -2 -10 -3 -18 -3 -13 0 -15 116 -15
980 l0 980 475 0 475 0 1 -210z m1689 202 c0 -5 -7 -9 -15 -9 -8 0 -12 4 -9 9
3 4 9 8 15 8 5 0 9 -4 9 -8z m6922 -976 c3 -844 1 -983 -11 -978 -10 4 -12 1
-6 -9 6 -11 5 -12 -6 -1 -10 9 -76 12 -261 12 -217 0 -248 -2 -256 -16 -8 -15
-10 -15 -15 0 -3 8 -2 18 3 21 6 4 10 371 10 981 l0 974 270 0 270 0 2 -984z
m2169 17 c0 -533 2 -975 4 -983 2 -13 -32 -15 -271 -12 l-274 3 -2 747 -3 747
-293 3 -292 2 2 -754 c3 -646 1 -753 -11 -748 -10 4 -12 1 -6 -9 6 -11 5 -12
-6 -1 -10 9 -76 12 -261 12 -217 0 -248 -2 -256 -16 -8 -15 -10 -15 -15 0 -3
8 -2 18 3 21 6 4 10 371 10 981 l0 974 835 0 835 0 1 -967z m5706 952 c0 -8
-4 -12 -9 -9 -5 3 -6 10 -3 15 9 13 12 11 12 -6z m2473 -730 l0 -745 290 0
290 0 0 745 0 745 270 0 270 0 1 -965 c1 -531 2 -972 3 -980 1 -14 -90 -15
-814 -15 -448 0 -823 0 -832 0 -17 0 -18 53 -18 980 l0 980 270 0 270 0 0
-745z m2570 510 l0 -235 -32 0 c-18 -1 -111 0 -206 0 l-172 1 0 -747 1 -746
-251 1 c-194 2 -255 -1 -268 -11 -12 -10 -14 -10 -8 0 4 6 2 12 -3 12 -8 0
-11 297 -11 980 l0 980 475 0 475 0 0 -235z m-9880 219 c0 -8 -19 -13 -24 -6
-3 5 1 9 9 9 8 0 15 -2 15 -3z m5905 -3 c3 -5 2 -12 -3 -15 -5 -3 -9 1 -9 9 0
17 3 19 12 6z m5335 5 c0 -2 -8 -10 -17 -17 -16 -13 -17 -12 -4 4 13 16 21 21
21 13z m-26043 -41 c0 -8 -4 -12 -9 -9 -5 3 -6 10 -3 15 9 13 12 11 12 -6z
m25143 10 c0 -2 -6 -8 -13 -14 -10 -8 -14 -7 -14 2 0 8 6 14 14 14 7 0 13 -1
13 -2z m-4383 -19 c0 -15 -21 -16 -34 -1 -4 4 -3 5 4 1 6 -3 14 -2 18 4 8 14
12 13 12 -4z m-14217 -22 c0 -8 -19 -13 -24 -6 -3 5 1 9 9 9 8 0 15 -2 15 -3z
m-2846 -12 c3 -5 -1 -9 -9 -9 -8 0 -12 4 -9 9 3 4 7 8 9 8 2 0 6 -4 9 -8z
m-6005 -35 c8 -10 7 -14 -2 -14 -8 0 -14 6 -14 14 0 7 1 13 2 13 2 0 8 -6 14
-13z m27366 4 c3 -5 2 -12 -3 -15 -5 -3 -9 1 -9 9 0 17 3 19 12 6z m-9068 -18
c0 -9 -4 -10 -14 -2 -7 6 -13 12 -13 14 0 1 6 2 13 2 8 0 14 -6 14 -14z
m-11060 -28 c0 -8 -4 -12 -9 -9 -5 3 -6 10 -3 15 9 13 12 11 12 -6z m2831 -10
c-3 -3 -9 2 -12 12 -6 14 -5 15 5 6 7 -7 10 -15 7 -18z m6785 7 c-10 -10 -20
-17 -22 -16 -6 5 20 34 30 34 5 0 1 -8 -8 -18z m1544 -67 c0 -8 -4 -12 -9 -9
-5 3 -6 10 -3 15 9 13 12 11 12 -6z m-8212 -4 c3 -5 2 -12 -3 -15 -5 -3 -9 1
-9 9 0 17 3 19 12 6z m11388 -9 c-10 -10 -20 -17 -22 -16 -6 5 20 34 30 34 5
0 1 -8 -8 -18z m1726 4 c11 -14 6 -15 -27 -7 -4 1 8 21 12 21 2 0 9 -6 15 -14z
m-17482 -11 c0 -8 -4 -12 -9 -9 -5 3 -6 10 -3 15 9 13 12 11 12 -6z m21453 1
c0 -2 -8 -10 -17 -17 -16 -13 -17 -12 -4 4 13 16 21 21 21 13z m-33211 -69 c8
-10 7 -14 -2 -14 -8 0 -14 6 -14 14 0 7 1 13 2 13 2 0 8 -6 14 -13z m9692 -24
c13 -16 12 -17 -3 -4 -17 13 -22 21 -14 21 2 0 10 -8 17 -17z m13031 10 c-6
-2 -9 -10 -6 -15 4 -7 2 -8 -5 -4 -13 9 -5 26 12 25 9 0 8 -2 -1 -6z m6582 -1
c3 -5 -1 -9 -9 -9 -8 0 -12 4 -9 9 3 4 7 8 9 8 2 0 6 -4 9 -8z m-23519 -80
c-3 -3 -11 0 -18 7 -9 10 -8 11 6 5 10 -3 15 -9 12 -12z m18705 4 c0 -2 -7 -7
-16 -10 -8 -3 -12 -2 -9 4 6 10 25 14 25 6z m2980 -11 c0 -2 -6 -8 -13 -14
-10 -8 -14 -7 -14 2 0 8 6 14 14 14 7 0 13 -1 13 -2z m-17755 -25 c10 -11 16
-20 13 -20 -3 0 -13 9 -23 20 -10 11 -16 20 -13 20 3 0 13 -9 23 -20z m14790
10 c3 -6 -1 -7 -9 -4 -18 7 -21 14 -7 14 6 0 13 -4 16 -10z m9212 -5 c0 -8 -4
-12 -9 -9 -5 3 -6 10 -3 15 9 13 12 11 12 -6z m788 6 c3 -5 0 -13 -6 -17 -7
-4 -9 -3 -5 4 3 5 0 13 -6 15 -9 4 -10 6 -1 6 6 1 14 -3 18 -8z m-1355 -5 c0
-2 -8 -10 -17 -17 -16 -13 -17 -12 -4 4 13 16 21 21 21 13z m540 -37 c-6 -10
-13 -19 -16 -19 -2 0 0 8 5 19 6 10 7 22 3 26 -4 5 -1 5 6 1 9 -5 9 -12 2 -27z
m-25585 2 c3 -5 2 -12 -3 -15 -5 -3 -9 1 -9 9 0 17 3 19 12 6z m25030 -11 c3
-5 1 -10 -4 -10 -6 0 -11 5 -11 10 0 6 2 10 4 10 3 0 8 -4 11 -10z m960 -9 c3
-5 2 -12 -3 -15 -5 -3 -9 1 -9 9 0 17 3 19 12 6z m-20 -30 c3 -5 2 -12 -3 -15
-5 -3 -9 1 -9 9 0 17 3 19 12 6z m-345 -45 c0 -3 -4 -8 -10 -11 -5 -3 -10 -1
-10 4 0 6 5 11 10 11 6 0 10 -2 10 -4z m-22113 -23 c0 -9 -4 -10 -14 -2 -7 6
-13 12 -13 14 0 1 6 2 13 2 8 0 14 -6 14 -14z m-11427 -19 c0 -8 -19 -13 -24
-6 -3 5 1 9 9 9 8 0 15 -2 15 -3z m32920 2 c0 -3 -4 -8 -10 -11 -5 -3 -10 -1
-10 4 0 6 5 11 10 11 6 0 10 -2 10 -4z m740 -56 c0 -5 -2 -10 -4 -10 -3 0 -8
5 -11 10 -3 6 -1 10 4 10 6 0 11 -4 11 -10z m-25846 -59 c3 -5 -2 -15 -12 -22
-15 -12 -16 -12 -5 2 7 9 10 19 6 22 -3 4 -4 7 0 7 3 0 8 -4 11 -9z m3583 -6
c0 -8 -4 -12 -9 -9 -5 3 -6 10 -3 15 9 13 12 11 12 -6z m22448 5 c-3 -5 -12
-10 -18 -10 -7 0 -6 4 3 10 19 12 23 12 15 0z m-26005 -14 c0 -2 -8 -10 -17
-17 -16 -13 -17 -12 -4 4 13 16 21 21 21 13z m26127 -61 c0 -8 -4 -12 -9 -9
-5 3 -6 10 -3 15 9 13 12 11 12 -6z m43 -21 c0 -8 -19 -13 -24 -6 -3 5 1 9 9
9 8 0 15 -2 15 -3z m121 -57 c-6 -8 -7 -18 -3 -22 4 -5 1 -5 -6 -1 -10 6 -10
11 -1 22 6 8 14 14 16 14 3 0 0 -6 -6 -13z m-28880 -21 c-6 -7 -7 -17 -3 -21
4 -5 1 -5 -6 -1 -9 6 -10 11 -3 20 6 7 7 17 3 21 -4 5 -1 5 6 1 9 -6 10 -11 3
-20z m19152 -41 c-3 -9 -8 -14 -10 -11 -3 3 -2 9 2 15 9 16 15 13 8 -4z m9801
-13 c3 -5 -1 -9 -9 -9 -8 0 -12 4 -9 9 3 4 7 8 9 8 2 0 6 -4 9 -8z m-26469
-12 c-3 -5 -12 -10 -18 -10 -7 0 -6 4 3 10 19 12 23 12 15 0z m1960 -9 c3 -5
2 -12 -3 -15 -5 -3 -9 1 -9 9 0 17 3 19 12 6z m-9388 -96 c0 -8 -4 -12 -9 -9
-5 3 -6 10 -3 15 9 13 12 11 12 -6z m32953 -31 c0 -2 -9 0 -20 6 -11 6 -20 13
-20 16 0 2 9 0 20 -6 11 -6 20 -13 20 -16z m-8854 -18 c-1 -23 -18 -29 -33
-11 -4 4 -3 5 4 1 7 -3 14 2 18 14 8 27 13 25 11 -4z m-14646 -21 c10 2 16 -5
16 -17 0 -17 -2 -17 -12 -4 -6 9 -13 13 -16 11 -3 -3 -11 3 -19 12 -12 16 -12
17 1 7 8 -6 22 -10 30 -9z m23660 -1 c0 -8 -19 -13 -24 -6 -3 5 1 9 9 9 8 0
15 -2 15 -3z m-33033 -17 c0 -8 -6 -14 -14 -14 -9 0 -10 4 -2 14 6 7 12 13 14
13 1 0 2 -6 2 -13z m4653 -1 c0 -3 -4 -8 -10 -11 -5 -3 -10 -1 -10 4 0 6 5 11
10 11 6 0 10 -2 10 -4z m2643 -69 c-3 -4 -10 -3 -17 2 -9 7 -17 7 -26 -2 -12
-10 -12 -9 -1 5 7 10 17 15 22 12 5 -3 9 3 10 13 0 16 1 16 8 -2 5 -11 6 -24
4 -28z m-2678 23 c-3 -5 -12 -10 -18 -10 -7 0 -6 4 3 10 19 12 23 12 15 0z
m24295 4 c0 -8 -19 -13 -24 -6 -3 5 1 9 9 9 8 0 15 -2 15 -3z m4298 -19 c-3
-3 -9 2 -12 12 -6 14 -5 15 5 6 7 -7 10 -15 7 -18z m-25944 -55 c-6 -6 -10 -3
-10 10 0 13 4 16 10 10 7 -7 7 -13 0 -20z m16363 -5 c0 -8 -4 -12 -9 -9 -5 3
-6 10 -3 15 9 13 12 11 12 -6z m9164 -22 c12 -16 12 -17 -2 -6 -9 7 -20 9 -24
5 -5 -4 -5 -1 -1 6 9 16 11 15 27 -5z m-10811 -13 c-6 -11 -13 -20 -16 -20 -2
0 0 9 6 20 6 11 13 20 16 20 2 0 0 -9 -6 -20z m4809 -7 c-6 -7 -15 -10 -20 -7
-13 8 -3 21 15 21 12 0 13 -4 5 -14z m-17334 -46 c0 -14 -6 -23 -16 -23 -15 0
-15 3 -2 23 9 13 16 23 17 23 0 0 1 -10 1 -23z m13969 15 c3 -5 -1 -9 -9 -9
-8 0 -12 4 -9 9 3 4 7 8 9 8 2 0 6 -4 9 -8z m-15579 -32 c10 -11 16 -20 13
-20 -3 0 -13 9 -23 20 -10 11 -16 20 -13 20 3 0 13 -9 23 -20z m3200 11 c3 -5
1 -12 -5 -16 -6 -4 -7 -11 -4 -17 4 -7 2 -8 -5 -4 -9 6 -9 11 -1 21 8 10 7 14
-2 18 -9 4 -9 6 -1 6 6 1 14 -3 18 -8z m12613 -24 c17 -18 19 -24 7 -24 -8 0
-13 3 -10 5 9 9 -17 32 -28 25 -6 -3 -7 -1 -3 5 9 16 9 16 34 -11z m-15831
-22 c0 -8 -4 -12 -9 -9 -5 3 -6 10 -3 15 9 13 12 11 12 -6z m1643 -15 c0 -5
-2 -10 -4 -10 -3 0 -8 5 -11 10 -3 6 -1 10 4 10 6 0 11 -4 11 -10z m14310 -5
c19 -22 8 -25 -12 -3 -10 10 -14 18 -9 18 5 0 14 -7 21 -15z m-19366 -3 c3 -5
-1 -9 -9 -9 -8 0 -12 4 -9 9 3 4 7 8 9 8 2 0 6 -4 9 -8z m24411 -22 c3 -6 -1
-7 -9 -4 -18 7 -21 14 -7 14 6 0 13 -4 16 -10z m4196 -7 c13 -16 12 -17 -3 -4
-10 7 -18 15 -18 17 0 8 8 3 21 -13z m253 -54 c-3 -5 -10 -7 -15 -3 -5 3 -7
10 -3 15 3 5 10 7 15 3 5 -3 7 -10 3 -15z m-22159 -8 c3 -5 2 -12 -3 -15 -5
-3 -9 1 -9 9 0 17 3 19 12 6z m-10786 -14 c8 -10 7 -14 -2 -14 -8 0 -14 6 -14
14 0 7 1 13 2 13 2 0 8 -6 14 -13z m4011 -7 c8 -15 8 -18 -3 -14 -8 3 -14 11
-14 19 0 20 4 19 17 -5z m2835 10 c3 -6 -1 -7 -9 -4 -18 7 -21 14 -7 14 6 0
13 -4 16 -10z m8443 -25 c-3 -3 -9 2 -12 12 -6 14 -5 15 5 6 7 -7 10 -15 7
-18z m-11321 0 c0 -8 -4 -12 -9 -9 -5 3 -6 10 -3 15 9 13 12 11 12 -6z m11238
-85 c3 -6 -1 -7 -9 -4 -18 7 -21 14 -7 14 6 0 13 -4 16 -10z m8280 -30 c-3 -5
-12 -10 -18 -10 -7 0 -6 4 3 10 19 12 23 12 15 0z m3214 -24 c-3 -3 -11 5 -18
17 -13 21 -12 21 5 5 10 -10 16 -20 13 -22z m-4815 6 c3 -5 -1 -9 -9 -9 -8 0
-12 4 -9 9 3 4 7 8 9 8 2 0 6 -4 9 -8z m11711 -31 c-9 -8 -36 -10 -30 -2 2 4
11 8 20 8 8 0 13 -3 10 -6z m-22623 -36 c2 3 5 -2 5 -10 0 -19 1 -20 -28 12
-17 20 -18 23 -3 10 11 -9 23 -15 26 -12z m12415 -10 c0 -8 -4 -12 -9 -9 -5 3
-6 10 -3 15 9 13 12 11 12 -6z m-8257 1 c0 -2 -8 -10 -17 -17 -16 -13 -17 -12
-4 4 13 16 21 21 21 13z m17176 -33 c-10 -11 -19 -7 -22 10 -2 15 0 16 12 6 8
-6 12 -14 10 -16z m-10292 -4 c-3 -5 -10 -7 -15 -3 -5 3 -7 10 -3 15 3 5 10 7
15 3 5 -3 7 -10 3 -15z m4793 7 c0 -15 -21 -16 -34 -1 -4 4 -3 5 4 1 6 -3 14
-2 18 4 8 14 12 13 12 -4z m-17542 -64 c-3 -3 1 -12 8 -21 11 -14 10 -14 -6
-2 -9 8 -15 16 -12 19 3 3 -1 12 -8 21 -11 14 -10 14 6 2 9 -8 15 -16 12 -19z
m14033 -7 c-3 -3 -9 2 -12 12 -6 14 -5 15 5 6 7 -7 10 -15 7 -18z m4799 0 c0
-8 -4 -12 -9 -9 -5 3 -6 10 -3 15 9 13 12 11 12 -6z m-15973 -3 c3 -5 -1 -9
-9 -9 -8 0 -12 4 -9 9 3 4 7 8 9 8 2 0 6 -4 9 -8z m21249 -47 c-3 -9 -8 -14
-10 -11 -3 3 -2 9 2 15 9 16 15 13 8 -4z m-23 0 c0 -7 -30 -13 -34 -7 -3 4 4
9 15 9 10 1 19 0 19 -2z m-5414 -32 c-3 -18 -33 -27 -42 -12 -3 5 0 8 7 7 7
-2 14 3 15 10 3 22 4 23 13 18 5 -4 8 -14 7 -23z m-15891 8 c3 -5 2 -12 -3
-15 -5 -3 -9 1 -9 9 0 17 3 19 12 6z m10230 -21 c-3 -5 -12 -10 -18 -10 -7 0
-6 4 3 10 19 12 23 12 15 0z m10859 -51 c-2 -5 -14 -1 -24 9 -26 22 -25 24 5
10 13 -6 22 -15 19 -19z m-21726 7 c-7 -8 -15 -12 -17 -11 -5 6 10 25 20 25 5
0 4 -6 -3 -14z m3242 -2 c0 -8 -19 -13 -24 -6 -3 5 1 9 9 9 8 0 15 -2 15 -3z
m12805 -3 c3 -5 0 -13 -6 -17 -7 -4 -9 -3 -5 4 3 5 0 13 -6 15 -9 4 -10 6 -1
6 6 1 14 -3 18 -8z m5248 -4 c7 3 8 2 4 -2 -14 -16 -36 -14 -29 3 4 10 7 12
10 4 2 -7 9 -9 15 -5z m157 -2 c0 -2 -6 -8 -13 -14 -10 -8 -14 -7 -14 2 0 8 6
14 14 14 7 0 13 -1 13 -2z m-18340 -15 c0 -5 -5 -10 -11 -10 -5 0 -7 5 -4 10
3 6 8 10 11 10 2 0 4 -4 4 -10z m7994 -6 c3 -8 2 -12 -4 -9 -6 3 -10 10 -10
16 0 14 7 11 14 -7z m-21878 -156 c4 -7 4 -10 -1 -6 -4 4 -15 2 -24 -5 -14
-11 -14 -10 -2 6 16 20 18 21 27 5z m129 -156 c-3 -3 -11 0 -18 7 -9 10 -8 11
6 5 10 -3 15 -9 12 -12z m98 -57 c-3 -9 -8 -14 -10 -11 -3 3 -2 9 2 15 9 16
15 13 8 -4z m51 -3 c3 -5 -1 -9 -9 -9 -8 0 -12 4 -9 9 3 4 7 8 9 8 2 0 6 -4 9
-8z m-21 -35 c-5 -8 -8 -7 -11 1 -2 7 -9 9 -14 6 -7 -4 -8 -2 -4 4 4 6 13 9
21 6 8 -4 12 -11 8 -17z m1975 -212 c-3 -3 -9 2 -12 12 -6 14 -5 15 5 6 7 -7
10 -15 7 -18z m-14 -13 c2 -4 -5 -9 -17 -9 -17 -2 -19 0 -7 7 18 12 18 12 24
2z m-200 -158 c3 -8 2 -12 -4 -9 -6 3 -10 10 -10 16 0 14 7 11 14 -7z m-239
-164 c-3 -5 -12 -10 -18 -10 -7 0 -6 4 3 10 19 12 23 12 15 0z m-655 -76 c0
-8 -19 -13 -24 -6 -3 5 1 9 9 9 8 0 15 -2 15 -3z m577 -9 c0 -8 -4 -12 -9 -9
-5 3 -6 10 -3 15 9 13 12 11 12 -6z m-160 -50 c0 -8 -4 -12 -9 -9 -5 3 -6 10
-3 15 9 13 12 11 12 -6z m-170 -24 c0 -11 -5 -18 -9 -15 -4 3 -5 11 -1 19 7
21 12 19 10 -4z"/>
<path d="M13947 31807 c-10 -13 -16 -16 -15 -7 2 12 -10 15 -60 17 -34 1 -60
-2 -57 -7 3 -5 0 -12 -6 -16 -8 -4 -9 -3 -5 4 4 7 1 12 -8 12 -9 0 -16 -4 -16
-10 0 -5 -5 -10 -11 -10 -5 0 -7 5 -4 10 8 13 -13 13 -125 -5 -161 -26 -204
-37 -231 -62 -14 -12 -29 -23 -33 -23 -5 0 2 9 15 20 28 23 19 24 -36 8 -22
-6 -42 -12 -45 -13 -3 -1 -22 -5 -42 -9 -21 -5 -38 -11 -38 -15 0 -4 -6 -8
-12 -9 -45 -3 -100 -22 -117 -41 -9 -9 -12 -10 -6 -3 8 12 5 14 -15 7 -14 -4
-36 -13 -50 -19 -14 -7 -44 -18 -67 -26 -24 -7 -43 -17 -43 -22 0 -5 -4 -7 -9
-3 -5 3 -17 -2 -25 -11 -9 -8 -16 -12 -16 -8 0 4 -7 -1 -16 -12 -8 -10 -13
-13 -9 -6 3 6 4 12 2 12 -12 0 -166 -80 -172 -90 -3 -5 -10 -8 -14 -6 -4 3
-17 -4 -29 -14 -12 -11 -28 -20 -37 -20 -9 0 -18 -6 -21 -13 -3 -8 -10 -14
-17 -14 -7 0 -32 -12 -55 -27 -31 -19 -42 -32 -38 -43 5 -12 3 -13 -7 -5 -10
9 -26 3 -65 -24 -29 -19 -50 -39 -47 -44 3 -5 0 -12 -6 -16 -8 -4 -9 -3 -5 4
4 7 2 12 -4 12 -6 0 -13 -7 -16 -15 -4 -8 -10 -13 -14 -10 -5 3 -16 -5 -25
-17 -8 -13 -19 -23 -23 -23 -4 0 -6 -3 -4 -8 1 -4 -4 -6 -10 -5 -7 2 -12 -3
-10 -10 1 -7 -4 -12 -11 -10 -14 3 -92 -60 -209 -171 -66 -62 -79 -81 -57 -81
5 0 7 5 3 12 -4 7 -3 8 5 4 17 -11 2 -28 -18 -21 -21 6 -86 -60 -75 -77 4 -6
3 -8 -3 -5 -13 8 -119 -111 -116 -130 0 -8 -1 -12 -4 -9 -8 7 -63 -56 -63 -71
0 -7 -4 -13 -9 -13 -14 0 -88 -114 -83 -129 3 -8 0 -11 -6 -7 -6 3 -27 -21
-48 -56 -21 -35 -45 -74 -53 -88 -14 -21 -14 -23 -1 -16 9 4 8 1 -2 -7 -26
-21 -100 -167 -94 -184 3 -8 1 -11 -4 -8 -9 5 -16 -8 -34 -60 -2 -5 -4 -14 -4
-19 0 -5 -4 -12 -9 -15 -10 -7 -45 -88 -48 -111 0 -8 -7 -25 -14 -38 -6 -12
-9 -28 -5 -34 4 -6 3 -8 -3 -5 -12 7 -57 -129 -49 -149 3 -8 2 -13 -3 -9 -12
7 -25 -51 -15 -66 5 -8 3 -9 -5 -4 -9 5 -12 1 -10 -11 1 -11 -3 -30 -8 -44 -6
-14 -9 -35 -8 -47 1 -12 -1 -20 -5 -18 -4 3 -11 -17 -14 -43 -9 -62 -14 -86
-27 -151 -6 -30 -9 -65 -6 -78 2 -13 0 -23 -5 -23 -6 0 -8 -22 -6 -50 1 -28 0
-50 -5 -50 -4 0 -6 -20 -5 -45 1 -39 3 -43 17 -33 11 9 10 6 -2 -9 -11 -12
-18 -34 -16 -50 1 -15 -1 -36 -6 -45 -4 -10 -5 -41 -2 -70 3 -29 8 -100 10
-158 3 -58 8 -130 12 -160 4 -30 7 -65 8 -77 0 -13 4 -23 9 -23 4 0 5 -7 2
-15 -4 -8 0 -23 7 -32 8 -9 9 -14 3 -10 -9 5 -9 -4 -2 -36 6 -23 11 -51 12
-62 1 -11 8 -19 16 -17 11 3 11 0 1 -12 -8 -9 -10 -23 -6 -33 5 -10 7 -21 7
-26 -2 -8 16 -93 25 -117 4 -8 8 -26 10 -40 2 -14 8 -26 13 -28 4 -2 6 -12 3
-22 -3 -12 0 -20 6 -20 7 0 10 -4 7 -9 -10 -16 13 -63 26 -55 10 6 10 5 1 -7
-18 -23 42 -203 65 -194 12 4 12 3 3 -9 -9 -11 -6 -29 15 -82 15 -38 30 -71
33 -74 3 -3 7 -12 9 -20 8 -34 44 -100 55 -100 8 0 8 -3 -1 -9 -11 -7 -9 -13
10 -31 12 -13 17 -20 10 -16 -7 4 9 -35 35 -88 26 -52 50 -93 54 -90 4 2 6 -4
5 -14 0 -9 4 -16 10 -15 7 1 10 -6 7 -17 -4 -14 0 -20 10 -20 9 0 19 -4 22
-10 4 -6 -1 -7 -11 -3 -15 6 -15 4 -1 -18 8 -13 29 -49 46 -79 17 -30 35 -54
41 -52 6 1 9 -2 6 -7 -8 -13 19 -62 46 -84 13 -10 17 -15 9 -11 -16 8 -14 2
18 -49 17 -27 28 -36 40 -32 13 5 13 4 4 -6 -10 -10 -9 -15 5 -26 9 -8 11 -11
3 -8 -9 5 -8 -1 4 -19 17 -25 34 -38 19 -14 -4 7 -3 8 5 4 6 -4 9 -11 6 -16
-8 -14 58 -110 72 -105 7 2 15 -1 19 -7 4 -7 3 -8 -4 -4 -21 13 -13 -10 20
-55 17 -24 34 -46 38 -49 3 -3 9 -13 13 -23 4 -11 12 -15 18 -11 8 4 9 3 5 -4
-4 -6 4 -22 16 -34 13 -13 23 -25 23 -28 0 -17 44 -62 54 -56 6 4 8 12 5 18
-4 7 -2 8 5 4 9 -6 9 -11 0 -22 -9 -11 -8 -20 5 -39 9 -14 22 -23 28 -19 7 4
8 3 4 -4 -4 -6 19 -43 51 -82 45 -55 61 -69 78 -64 15 4 17 3 5 -5 -14 -10 -6
-25 35 -66 5 -6 15 -19 22 -30 6 -11 16 -19 23 -17 6 1 9 -2 6 -7 -7 -10 106
-131 122 -131 6 0 9 -6 7 -13 -3 -6 34 -50 82 -96 47 -46 80 -81 72 -76 -8 5
-3 -4 10 -18 13 -15 28 -24 34 -20 6 3 7 2 4 -4 -8 -13 67 -86 78 -76 4 5 5 3
2 -3 -8 -14 66 -87 78 -77 4 5 5 3 2 -3 -4 -7 0 -18 9 -25 13 -10 17 -10 25 2
8 12 9 12 7 -1 -4 -19 52 -81 65 -73 6 3 7 1 4 -4 -7 -10 12 -29 152 -152 35
-31 77 -69 94 -86 17 -16 24 -21 16 -11 -8 11 22 -15 65 -57 63 -61 82 -75 93
-66 10 9 12 9 8 -3 -7 -18 40 -64 50 -49 3 6 11 9 16 5 5 -3 7 -10 4 -15 -6
-9 17 -39 29 -39 3 0 14 -8 24 -17 40 -38 94 -78 103 -75 5 1 8 -4 7 -10 -2
-7 5 -12 14 -12 10 1 16 -2 13 -6 -7 -12 36 -41 48 -33 6 3 7 1 3 -5 -4 -6 4
-16 16 -23 13 -7 27 -18 31 -25 4 -8 12 -14 17 -14 5 0 24 -13 42 -30 18 -16
38 -30 45 -30 7 0 13 -4 13 -10 0 -5 4 -10 9 -10 6 0 22 -11 37 -25 16 -15 34
-23 43 -20 8 3 12 3 8 -1 -9 -10 33 -45 46 -37 6 3 7 1 3 -5 -8 -14 29 -25 64
-18 14 2 29 5 33 5 5 1 5 6 1 13 -4 7 -3 8 4 4 16 -9 204 135 198 151 -3 7 1
10 8 7 17 -6 168 115 159 128 -3 6 -1 8 5 5 11 -7 80 46 119 92 13 14 29 26
35 26 7 1 12 7 10 14 -1 7 2 10 7 7 5 -4 19 6 30 20 12 15 21 23 21 19 0 -5 9
0 20 10 22 20 27 40 8 29 -8 -4 -9 -3 -5 2 5 5 16 9 25 9 9 0 16 6 14 13 -1 8
2 11 7 7 15 -9 213 175 207 192 -3 8 -1 11 5 8 14 -9 101 64 93 77 -4 6 -2 8
3 5 6 -4 17 1 24 10 12 14 12 16 -1 8 -9 -5 -12 -5 -7 1 5 5 12 9 17 9 11 0
270 257 270 268 0 5 -5 5 -12 1 -7 -4 -8 -3 -4 5 4 6 12 9 17 5 13 -7 41 15
33 27 -3 5 0 8 8 7 7 -2 12 3 10 10 -1 8 1 11 6 8 5 -3 23 12 41 34 32 40 39
56 19 44 -7 -4 -8 -3 -4 5 4 6 15 10 24 9 10 -2 16 3 14 10 -1 8 2 11 7 8 12
-8 87 81 83 97 -2 7 0 9 4 4 4 -4 25 12 46 35 35 39 50 67 29 53 -5 -3 -13 0
-17 6 -4 7 -3 9 3 6 6 -4 16 0 23 8 7 8 16 12 21 10 4 -3 24 11 43 32 32 35
34 39 18 52 -16 12 -15 13 4 7 14 -4 28 1 44 19 22 23 22 25 5 20 -13 -4 -11
-1 5 8 45 27 304 363 296 384 -4 8 -1 11 5 8 13 -9 40 26 34 43 -3 7 -1 11 4
7 12 -7 144 183 136 196 -4 5 0 12 9 15 8 3 22 17 32 31 15 24 15 26 0 20 -10
-4 -15 -3 -11 3 3 6 12 10 20 10 20 0 57 63 42 72 -9 5 -8 10 2 20 10 10 12
10 7 1 -4 -7 -3 -13 2 -13 6 0 20 16 31 36 16 26 19 40 11 49 -8 10 -6 13 6
11 25 -2 60 60 45 78 -8 10 -9 16 -1 21 9 6 14 -1 11 -17 0 -5 1 -8 4 -8 7 0
29 52 27 63 -1 4 3 7 10 7 6 0 9 3 6 6 -4 3 3 15 14 26 11 11 17 26 14 34 -3
8 -2 12 3 9 9 -5 27 34 22 44 -2 2 2 7 7 10 13 9 64 111 55 111 -5 0 -3 4 4 8
6 4 28 45 48 92 20 47 43 100 52 118 8 19 12 36 9 40 -3 3 0 12 8 21 24 28 87
212 81 235 -5 15 -4 17 3 8 7 -10 11 -7 15 15 3 15 1 33 -4 40 -7 7 -4 16 9
25 18 12 39 71 34 92 -2 4 3 14 9 22 6 8 8 14 5 14 -4 0 -3 8 2 18 5 9 12 32
15 50 5 25 4 31 -6 26 -6 -4 -4 2 7 14 10 12 16 28 13 36 -4 9 -2 18 3 21 16
10 11 43 -7 55 -16 10 -16 10 3 5 19 -5 21 1 32 87 24 187 26 217 11 235 -8 9
-9 14 -3 10 7 -4 14 2 18 16 9 36 7 169 -3 162 -5 -3 -13 -1 -16 5 -4 6 -1 9
7 8 9 -2 13 9 12 40 0 23 -2 76 -2 118 -1 41 -6 73 -10 70 -4 -2 -6 11 -4 31
3 27 1 34 -8 28 -9 -6 -10 -3 -3 9 9 17 0 121 -14 156 -3 8 -6 26 -7 40 -1 16
-6 24 -15 22 -11 -2 -12 0 -3 11 12 15 6 73 -9 93 -5 6 -6 14 -3 17 3 3 2 12
-2 19 -4 7 -9 19 -9 28 -3 35 -39 150 -47 150 -5 0 -6 5 -3 11 4 6 -1 17 -11
25 -11 9 -13 13 -6 9 17 -9 15 10 -2 25 -8 6 -13 17 -10 24 6 14 -33 126 -49
141 -7 7 -7 5 -2 -5 5 -8 4 -12 0 -7 -5 4 -9 20 -10 35 -1 15 -16 58 -34 95
-28 60 -35 67 -48 55 -15 -12 -15 -11 -3 8 11 18 10 27 -11 65 -13 24 -29 51
-35 59 -7 8 -12 17 -12 20 0 17 -27 58 -35 53 -6 -3 -7 -1 -3 5 9 15 -53 114
-66 105 -6 -3 -8 -1 -4 5 7 12 -50 102 -66 102 -6 0 -8 3 -5 6 11 11 -14 46
-28 40 -9 -3 -12 0 -8 10 6 16 -15 47 -27 39 -4 -3 -14 3 -21 13 -13 15 -12
16 4 3 27 -21 20 1 -11 34 -15 17 -35 41 -44 54 -27 39 -160 181 -169 181 -5
0 -9 -5 -9 -11 0 -5 5 -7 12 -3 7 4 8 3 4 -5 -11 -18 -28 -2 -20 21 5 17 3 19
-14 14 -23 -8 -39 9 -21 20 8 4 9 3 5 -4 -4 -7 -2 -12 3 -12 18 0 13 15 -13
39 -16 15 -26 19 -31 11 -5 -7 -11 -8 -19 -1 -8 7 -16 7 -23 0 -6 -6 -10 -5
-10 5 0 7 7 13 16 11 9 -1 20 0 24 2 11 7 -43 63 -60 63 -7 0 -13 5 -13 11 0
5 -5 7 -12 3 -6 -4 -8 -3 -5 3 6 10 -46 56 -170 152 -24 18 -43 29 -43 25 0
-4 -6 1 -14 11 -8 11 -20 16 -29 12 -11 -4 -14 -2 -10 9 5 12 -7 19 -29 15 -5
0 -8 3 -8 8 0 11 -50 48 -70 53 -7 2 -21 11 -31 20 -19 18 -116 70 -122 66 -2
-2 -11 5 -21 14 -9 9 -23 15 -31 12 -8 -4 -18 1 -21 10 -3 9 -10 13 -15 10 -5
-3 -7 -9 -4 -14 3 -5 1 -12 -5 -15 -6 -4 -9 -1 -8 7 2 7 -2 12 -9 11 -7 -2
-10 3 -7 11 6 17 -22 40 -37 30 -8 -5 -9 -3 -4 6 6 10 3 12 -13 8 -12 -4 -19
-2 -16 3 3 5 -5 13 -18 18 -25 10 -42 5 -33 -10 4 -5 1 -9 -5 -9 -7 0 -9 8 -5
19 5 16 -3 22 -47 38 -29 10 -59 17 -65 17 -7 -1 -10 2 -7 7 3 5 -2 10 -10 10
-19 2 -26 4 -46 12 -61 25 -142 47 -152 41 -8 -4 -9 -3 -5 2 5 5 -28 18 -74
31 l-83 23 -31 -28 -30 -27 23 27 c24 26 24 26 3 33 -11 3 -25 3 -31 0 -5 -3
-10 -2 -10 3 0 11 -147 35 -161 26 -5 -3 -9 -1 -9 3 0 9 -5 10 -110 17 -36 3
-72 7 -81 11 -9 3 -36 5 -60 3 -33 -2 -43 -7 -41 -18 1 -9 -5 -7 -17 8 -22 25
-74 28 -93 5 -6 -7 -15 -13 -21 -13 -6 0 -2 7 9 15 18 14 17 14 -11 15 -17 0
-37 -6 -44 -12 -11 -10 -13 -10 -7 0 5 9 -4 12 -36 12 -32 -1 -47 -6 -61 -23z
m87 -5 c3 -5 -1 -9 -9 -9 -8 0 -12 4 -9 9 3 4 7 8 9 8 2 0 6 -4 9 -8z m-598
-94 c4 -7 4 -10 -1 -6 -4 4 -15 2 -24 -5 -14 -11 -14 -10 -2 6 16 20 18 21 27
5z m1619 -68 c3 -6 -1 -7 -9 -4 -18 7 -21 14 -7 14 6 0 13 -4 16 -10z m-1860
-9 c3 -5 2 -12 -3 -15 -5 -3 -9 1 -9 9 0 17 3 19 12 6z m-238 -58 c0 -9 -4
-10 -14 -2 -7 6 -13 12 -13 14 0 1 6 2 13 2 8 0 14 -6 14 -14z m-181 -70 c-2
-10 4 -24 13 -31 14 -11 13 -12 -6 -3 -18 9 -22 23 -14 49 4 10 9 -2 7 -15z
m-39 -30 c0 -9 -4 -10 -14 -2 -7 6 -13 12 -13 14 0 1 6 2 13 2 8 0 14 -6 14
-14z m1188 -51 c20 -2 34 1 32 5 -3 4 20 7 51 6 31 -1 63 4 71 10 12 9 13 9 7
0 -4 -8 -2 -13 8 -13 8 0 18 5 21 10 4 6 12 7 18 3 21 -13 49 -14 65 -1 13 10
14 10 8 0 -10 -17 21 -27 38 -13 10 9 16 9 21 1 4 -6 12 -10 18 -9 7 2 32 -1
57 -5 25 -3 65 -8 90 -11 25 -2 71 -9 103 -15 31 -6 62 -8 67 -5 6 3 10 2 10
-3 0 -9 121 -38 148 -36 6 1 12 -3 12 -8 0 -6 7 -8 15 -5 8 4 17 2 20 -2 2 -5
26 -14 51 -20 38 -10 49 -9 57 1 7 10 8 9 4 -3 -4 -12 6 -20 36 -30 23 -8 44
-14 47 -15 7 -1 53 -21 118 -50 29 -13 58 -21 64 -18 6 4 8 3 5 -3 -8 -12 141
-85 156 -77 7 4 9 4 5 -1 -11 -12 98 -74 127 -71 13 2 22 -1 19 -6 -3 -5 -13
-7 -22 -3 -23 9 -16 3 62 -49 37 -25 72 -43 77 -40 5 3 8 0 7 -7 -2 -7 8 -18
21 -25 13 -7 26 -16 30 -21 17 -23 74 -62 83 -57 6 4 8 3 5 -3 -4 -6 5 -21 18
-33 14 -13 25 -21 25 -18 0 4 24 -18 53 -48 28 -30 58 -54 65 -54 7 0 11 -4 8
-8 -3 -5 17 -29 44 -53 27 -24 50 -49 50 -54 0 -6 28 -39 61 -74 34 -35 56
-61 48 -57 -8 4 -4 -1 9 -10 12 -9 22 -22 22 -29 0 -7 13 -27 29 -44 17 -18
30 -33 29 -34 -3 -11 48 -77 57 -74 6 3 12 -1 12 -9 0 -7 -4 -11 -9 -7 -12 7
40 -77 59 -95 7 -8 11 -17 8 -22 -3 -5 10 -23 27 -41 18 -18 27 -30 21 -25
-18 10 -16 4 9 -48 12 -25 25 -43 30 -40 4 3 5 -3 1 -12 -5 -14 -3 -16 12 -11
15 6 16 5 6 -7 -7 -9 -8 -17 -2 -20 5 -3 11 -1 13 6 3 7 7 5 11 -6 4 -9 3 -15
-2 -11 -16 9 -22 -12 -9 -27 7 -7 14 -20 16 -28 8 -38 46 -130 53 -130 5 0 5
-7 2 -17 -4 -9 -2 -14 3 -11 5 4 9 -4 10 -15 1 -12 16 -79 35 -150 26 -96 37
-126 48 -122 11 4 11 2 2 -9 -13 -15 -4 -96 10 -96 5 0 6 -7 3 -15 -4 -8 0
-23 7 -32 8 -9 9 -14 4 -11 -7 4 -7 -25 1 -85 6 -51 12 -94 13 -96 0 -2 9 3
19 10 16 13 16 13 0 -7 -21 -24 -25 -69 -5 -58 10 6 10 4 0 -7 -14 -14 -19
-301 -5 -296 4 1 7 -2 7 -8 0 -5 -3 -9 -7 -8 -5 2 -9 -14 -10 -35 -3 -69 -6
-97 -11 -124 -3 -15 -1 -30 4 -33 5 -3 1 -18 -9 -33 -13 -20 -14 -24 -2 -17
12 7 13 6 3 -6 -6 -8 -13 -27 -16 -44 -5 -32 -44 -206 -54 -240 -3 -11 -6 -29
-7 -40 -1 -11 -7 -29 -13 -40 -8 -15 -51 -137 -58 -165 -1 -3 -9 -22 -19 -43
-9 -21 -14 -43 -10 -50 4 -7 3 -9 -1 -4 -7 6 -83 -138 -88 -168 -1 -5 -8 -16
-15 -23 -9 -10 -10 -18 -2 -26 12 -15 3 -27 -15 -20 -7 3 -15 -2 -19 -11 -4
-11 -2 -14 7 -10 6 4 5 1 -4 -7 -9 -7 -27 -32 -42 -54 -19 -31 -23 -44 -14
-53 11 -11 9 -12 -15 -15 -6 0 -40 -41 -76 -90 -35 -48 -58 -85 -50 -81 7 3 5
0 -4 -8 -10 -8 -16 -17 -13 -20 3 -4 2 -5 -2 -2 -9 7 -123 -107 -117 -117 3
-5 2 -7 -3 -6 -15 4 -54 -23 -47 -34 4 -7 2 -8 -5 -4 -16 10 -43 -14 -36 -32
4 -12 3 -13 -10 -2 -10 8 -15 9 -15 1 0 -6 -3 -10 -7 -9 -11 3 -127 -54 -131
-64 -2 -5 -7 -6 -12 -3 -15 10 -62 -14 -54 -27 6 -10 3 -9 -8 0 -13 10 -22 11
-38 2 -33 -17 -305 -30 -329 -15 -10 6 -12 4 -6 -6 6 -11 5 -12 -6 -1 -7 6
-22 12 -34 12 -12 0 -27 -6 -35 -12 -12 -11 -12 -10 -2 3 11 14 9 17 -13 21
-14 3 -28 1 -32 -5 -4 -6 -10 -5 -17 4 -11 14 -129 62 -153 62 -7 0 -10 4 -8
8 5 6 -32 22 -47 20 -5 -1 -8 4 -8 9 0 6 -7 10 -15 10 -8 0 -15 4 -15 8 0 4
-15 16 -32 27 -18 10 -57 41 -87 69 -29 28 -58 50 -65 48 -6 -2 -8 -1 -4 3 8
9 -82 121 -95 117 -4 -1 -5 2 -2 8 4 6 -1 18 -11 26 -11 9 -13 12 -5 8 10 -5
12 -3 7 5 -5 7 -15 10 -23 6 -12 -4 -13 -2 -5 8 9 10 8 18 -4 33 -8 10 -12 13
-8 5 5 -9 3 -12 -5 -7 -6 4 -8 12 -5 18 8 13 -16 88 -29 88 -5 0 -7 7 -3 15 3
8 1 15 -4 15 -5 0 -7 7 -3 16 4 10 -1 20 -11 26 -13 7 -14 13 -6 23 7 8 7 15
1 19 -5 3 -7 15 -4 25 3 10 -1 22 -8 26 -8 6 -10 4 -4 -5 5 -9 4 -11 -3 -6 -9
5 -9 12 -1 25 8 12 9 47 3 118 -9 101 -6 122 24 168 14 20 23 20 953 17 754
-2 939 0 933 10 -5 9 -2 8 10 -1 15 -12 19 -12 33 2 13 13 14 19 4 31 -8 9
-18 13 -25 9 -6 -3 -8 -3 -4 2 11 11 -12 36 -25 28 -5 -3 -7 -1 -4 4 9 14 -19
37 -34 27 -7 -4 -9 -3 -6 3 4 6 0 16 -8 23 -8 7 -15 9 -15 5 0 -3 -11 6 -24
22 -24 29 -125 105 -113 86 4 -7 2 -15 -4 -19 -8 -4 -9 -3 -5 4 9 15 -32 55
-50 48 -8 -3 -13 0 -11 7 1 7 -4 11 -10 10 -7 -2 -13 2 -13 8 0 5 -4 7 -10 4
-5 -3 -10 -1 -10 5 0 13 -140 81 -152 74 -4 -3 -8 0 -8 6 0 7 -7 9 -16 6 -8
-3 -12 -2 -9 4 6 9 -10 14 -42 13 -7 -1 -11 3 -8 7 4 7 -31 20 -65 25 -3 0 -9
3 -15 6 -10 6 -107 31 -135 34 -8 1 -22 5 -30 8 -23 9 -154 27 -195 27 -26 0
-34 -3 -29 -12 5 -8 0 -7 -10 2 -20 16 -74 18 -211 7 -132 -11 -168 -18 -183
-35 -7 -9 -10 -11 -6 -3 6 11 -1 12 -32 6 -21 -4 -41 -10 -44 -14 -3 -4 -12
-6 -20 -6 -8 1 -55 -12 -103 -28 -77 -25 -86 -31 -75 -45 12 -13 11 -14 -8 -2
-19 12 -34 6 -138 -48 -115 -59 -161 -70 -149 -34 3 10 309 321 681 693 400
401 672 681 668 688 -12 19 -187 14 -215 -6 -14 -9 -21 -11 -17 -5 4 7 -4 10
-23 10 -17 -1 -28 -4 -26 -8 2 -4 -6 -5 -18 -3 -19 4 -47 -1 -127 -22 -8 -2
-15 -4 -15 -5 0 -1 -11 -3 -25 -6 -14 -2 -32 -7 -40 -11 -8 -3 -22 -7 -31 -9
-9 -2 -29 -9 -45 -15 -35 -15 -40 -16 -60 -18 -9 0 -12 -6 -8 -13 4 -6 3 -8
-4 -5 -12 8 -143 -48 -154 -66 -4 -6 -5 -14 -2 -18 2 -4 0 -11 -6 -14 -6 -4
-10 -3 -9 2 3 19 -2 21 -23 9 -61 -33 -88 -52 -88 -59 0 -5 -4 -6 -8 -3 -11 7
-75 -52 -68 -62 3 -5 -1 -9 -9 -9 -12 0 -12 3 -2 16 6 9 -12 -4 -41 -28 -30
-25 -56 -50 -59 -58 -3 -7 -10 -10 -16 -6 -6 4 -8 0 -4 -10 4 -10 2 -14 -6
-11 -18 7 -91 -71 -82 -87 6 -8 4 -10 -5 -4 -10 6 -12 4 -7 -9 5 -11 3 -15 -5
-10 -13 8 -80 -65 -71 -79 3 -6 1 -7 -5 -3 -6 4 -16 -4 -23 -16 -7 -13 -23
-36 -36 -53 -13 -16 -23 -34 -23 -39 1 -5 -2 -12 -7 -15 -11 -7 -53 -75 -53
-85 0 -4 5 -4 12 0 7 4 8 3 4 -5 -4 -6 -11 -9 -16 -6 -11 7 -32 -30 -23 -39 3
-3 2 -6 -4 -6 -16 0 -24 -28 -11 -36 7 -5 8 -2 3 6 -5 9 -4 11 4 6 9 -6 9 -11
0 -22 -13 -16 -23 -19 -14 -4 3 6 3 10 0 10 -9 0 -56 -110 -60 -140 -2 -14 -4
-26 -6 -27 -1 -2 -2 -6 -4 -10 -1 -5 -10 -25 -19 -46 -13 -29 -14 -42 -6 -52
8 -10 8 -15 -1 -21 -8 -5 -10 -3 -4 7 5 9 5 11 -2 4 -13 -13 -27 -68 -15 -61
5 3 9 -1 9 -9 0 -8 -4 -12 -8 -10 -9 6 -19 -20 -19 -51 0 -17 4 -23 13 -18 6
4 3 -2 -7 -14 -19 -22 -53 -31 -41 -12 10 17 -7 11 -20 -7 -9 -13 -14 -13 -20
-3 -5 8 -4 11 3 6 17 -10 19 24 5 99 -18 94 -21 104 -34 85 -6 -10 -7 -4 -4
22 4 23 0 50 -11 75 -9 21 -16 42 -15 46 0 4 -8 26 -19 49 -11 23 -20 47 -20
54 0 7 -7 20 -16 29 -14 13 -19 14 -26 3 -8 -10 -9 -10 -5 2 2 8 9 14 15 13 6
-2 9 4 6 12 -4 8 -11 12 -17 8 -5 -3 -7 -2 -4 4 9 14 -31 95 -43 88 -6 -3 -7
0 -4 8 3 8 -2 21 -10 30 -9 9 -16 19 -16 22 0 16 -84 125 -97 125 -8 0 -12 4
-9 9 8 12 -21 47 -126 154 -54 55 -92 86 -99 81 -7 -4 -9 -3 -5 4 7 12 -33 44
-46 36 -5 -3 -7 0 -6 8 2 7 -3 12 -9 10 -7 -1 -13 3 -13 9 0 6 -7 9 -14 6 -11
-4 -13 -1 -9 10 4 11 2 14 -5 9 -7 -4 -12 -3 -12 2 0 15 -81 64 -96 58 -8 -3
-13 0 -11 7 1 7 -6 11 -15 11 -10 -1 -15 2 -12 7 6 11 -174 98 -209 102 -17 1
-22 -3 -21 -20 1 -13 -2 -20 -7 -18 -4 3 -6 16 -3 30 4 22 -1 26 -63 44 -38
11 -79 22 -93 24 -14 2 -32 7 -40 10 -15 6 -37 10 -130 24 -43 6 -44 6 -30
-13 12 -15 9 -14 -14 4 -25 19 -41 22 -122 22 -57 0 -95 -4 -100 -11 -9 -15
907 -931 924 -924 8 3 10 0 6 -6 -4 -7 83 -101 206 -224 150 -150 211 -217
209 -231 -2 -10 0 -26 5 -34 7 -12 6 -13 -5 -2 -15 13 -43 17 -35 4 3 -5 -1
-9 -9 -9 -11 0 -12 4 -4 13 8 10 3 17 -21 29 -17 9 -36 13 -43 9 -7 -4 -9 -4
-5 1 10 10 -17 29 -77 55 -29 12 -44 15 -40 7 4 -6 0 -4 -8 5 -8 10 -17 15
-20 11 -4 -3 -7 -1 -7 6 0 8 -7 11 -15 7 -8 -3 -15 -2 -15 2 0 12 -127 55
-139 47 -6 -3 -11 -2 -11 4 0 5 -8 8 -17 7 -10 -2 -20 0 -23 4 -3 5 -23 11
-44 15 -31 6 -38 5 -32 -6 4 -8 1 -7 -6 2 -32 39 -349 54 -548 26 -66 -10
-116 -20 -125 -25 -5 -4 -21 -8 -35 -10 -36 -5 -127 -32 -169 -50 -20 -9 -40
-17 -46 -18 -36 -8 -145 -66 -140 -75 4 -5 3 -9 -2 -8 -7 1 -11 0 -30 -6 -5
-2 -18 -6 -30 -10 -13 -4 -21 -11 -18 -14 2 -4 -1 -8 -8 -8 -21 0 -97 -55 -90
-66 3 -6 1 -7 -5 -3 -13 8 -82 -40 -82 -57 0 -6 7 -2 15 9 11 13 14 14 13 4
-4 -21 -20 -31 -34 -19 -8 6 -22 -2 -45 -28 -18 -21 -37 -38 -41 -38 -5 0 -22
-15 -39 -34 -27 -31 -28 -36 -14 -50 11 -12 18 -12 27 -3 8 8 15 8 23 2 8 -7
336 -9 927 -8 l915 3 19 -25 c14 -18 20 -48 24 -116 3 -51 1 -90 -3 -87 -5 3
-8 -12 -7 -33 2 -22 0 -46 -3 -54 -11 -30 -17 -81 -9 -76 5 3 9 -1 9 -9 0 -8
-4 -12 -9 -9 -10 7 -29 -42 -31 -83 -1 -17 -6 -31 -12 -30 -5 1 -10 -8 -9 -20
0 -13 -2 -21 -4 -18 -5 4 -21 -18 -39 -55 -4 -8 -19 -32 -35 -54 -15 -21 -25
-43 -21 -49 3 -5 2 -7 -4 -4 -5 3 -20 -7 -31 -23 -25 -33 -30 -54 -6 -24 15
18 15 18 4 -3 -5 -12 -15 -25 -22 -29 -7 -4 -8 -3 -4 4 14 23 -5 12 -42 -24
-20 -20 -36 -40 -35 -45 2 -5 0 -8 -5 -7 -13 4 -160 -96 -172 -117 -9 -17 -10
-17 -5 -1 5 17 4 17 -27 -1 -18 -11 -73 -32 -123 -48 -102 -33 -95 -31 -153
-33 -24 -1 -41 -5 -39 -9 3 -5 -50 -5 -116 0 -167 10 -181 11 -187 18 -3 3
-33 15 -67 26 -42 14 -65 18 -70 11 -4 -7 -1 -8 6 -3 10 6 11 3 2 -14 -13 -24
-17 -25 -27 -9 -4 6 -3 8 3 5 6 -4 11 4 11 18 0 14 -4 22 -8 20 -5 -3 -10 -2
-12 2 -7 16 -68 44 -81 37 -6 -4 -9 -4 -5 0 9 11 -134 117 -150 111 -7 -3 -10
0 -6 6 3 6 -16 31 -42 57 -27 25 -42 42 -34 38 8 -4 6 1 -6 11 -12 10 -26 29
-33 41 -7 12 -16 20 -21 17 -6 -3 -7 0 -5 8 3 7 -3 22 -15 32 -11 10 -20 25
-20 33 0 9 -6 12 -16 8 -10 -4 -13 -2 -8 6 4 6 -1 17 -11 25 -11 7 -14 13 -7
13 11 0 -23 69 -41 81 -5 3 -9 10 -10 15 -1 5 -5 8 -9 7 -4 -2 -5 3 -2 11 3 7
-1 20 -8 27 -7 8 -14 21 -16 29 -7 36 -25 69 -35 63 -5 -3 -7 -1 -4 5 9 13
-44 133 -55 126 -4 -3 -5 2 -2 10 3 8 -6 43 -20 78 -14 34 -28 76 -32 91 -4
18 -11 26 -20 23 -7 -3 -16 -1 -19 5 -4 5 -1 8 6 7 6 -2 14 3 16 10 3 6 0 12
-5 12 -6 0 -8 9 -5 20 3 11 1 20 -3 20 -5 0 -10 14 -11 30 -1 17 -9 38 -18 46
-18 18 -20 28 -3 18 8 -5 9 -2 5 10 -4 10 -7 24 -7 32 0 9 -4 13 -9 10 -5 -4
-7 3 -4 14 4 13 -1 27 -13 36 -11 9 -13 13 -6 9 15 -8 15 9 1 55 -5 19 -12 49
-13 65 -10 101 -19 161 -26 169 -5 5 -6 15 -3 23 3 7 -3 24 -13 36 -17 20 -18
20 -1 8 17 -14 18 -12 15 30 -2 32 -7 43 -17 41 -11 -2 -12 0 -4 10 15 20 17
232 2 222 -8 -5 -9 -3 -3 7 12 20 15 35 19 114 2 39 6 77 9 85 3 8 7 42 10 75
3 33 9 78 13 100 3 22 7 50 7 63 1 12 4 22 7 22 4 0 6 15 6 34 -1 19 6 42 14
52 12 16 12 17 -1 9 -13 -8 -13 -7 -1 8 7 9 10 17 5 17 -5 0 -4 4 3 8 6 4 13
19 15 32 2 14 7 31 11 38 5 6 5 17 2 22 -3 6 -1 10 4 10 6 0 11 7 11 16 0 9
-5 13 -12 9 -7 -4 -6 -1 3 7 17 14 42 78 31 78 -4 0 -2 4 3 8 9 5 67 141 70
162 1 3 15 33 33 67 18 35 32 65 32 68 0 3 7 16 16 30 9 13 12 30 8 36 -4 7
-3 9 3 6 5 -3 20 13 33 36 13 23 45 75 71 115 27 39 45 72 41 72 -3 0 4 7 16
16 12 8 22 21 22 29 0 7 3 15 8 17 18 8 61 71 56 80 -4 6 -3 8 3 5 5 -3 38 28
74 70 35 42 83 94 107 116 23 23 40 47 38 53 -3 8 1 11 10 7 7 -3 14 0 14 6 0
7 8 15 17 18 25 10 53 36 53 49 0 6 9 14 21 17 13 4 18 10 13 18 -5 8 -3 10 5
5 14 -9 53 22 45 35 -3 5 1 6 8 4 8 -3 31 10 51 29 21 19 40 35 43 35 12 1
103 68 99 73 -3 2 1 5 8 5 14 0 99 51 108 65 3 5 10 10 15 10 22 1 53 22 47
31 -3 6 -1 7 5 3 12 -7 62 13 62 26 0 5 5 6 10 3 6 -3 10 -1 10 6 0 7 3 10 6
6 4 -3 34 8 68 25 33 18 63 32 66 33 3 0 16 7 30 15 14 7 25 12 25 10 0 -2 57
16 128 39 70 24 125 47 122 52 -4 5 2 6 11 2 13 -5 15 -3 9 7 -6 10 -4 11 6 4
21 -13 39 -14 39 -2 0 6 6 8 14 5 8 -3 30 -1 48 4 18 6 51 13 73 15 22 3 42 8
45 12 3 4 19 8 35 9 17 1 55 4 85 8 30 4 64 8 75 9 11 1 19 7 18 12 -1 6 4 11
12 11 8 0 12 -4 9 -9 -3 -4 4 -8 15 -8 15 0 19 5 15 18 -5 14 -4 15 5 2 5 -9
26 -17 46 -18z m-191 10 c3 -5 -1 -9 -9 -9 -8 0 -12 4 -9 9 3 4 7 8 9 8 2 0 6
-4 9 -8z m-104 -8 c0 -8 -19 -13 -24 -6 -3 5 1 9 9 9 8 0 15 -2 15 -3z m60 -8
c0 -2 -7 -7 -16 -10 -8 -3 -12 -2 -9 4 6 10 25 14 25 6z m-394 -94 c-17 -16
-18 -16 -5 5 7 12 15 20 18 17 3 -2 -3 -12 -13 -22z m-131 -42 c-3 -5 -12 -10
-18 -10 -7 0 -6 4 3 10 19 12 23 12 15 0z m-825 -60 c0 -5 -5 -10 -11 -10 -5
0 -7 5 -4 10 3 6 8 10 11 10 2 0 4 -4 4 -10z m2910 -24 c0 -2 -6 -9 -14 -15
-11 -9 -16 -9 -22 0 -4 7 -3 9 4 5 6 -3 13 -2 17 4 6 10 15 14 15 6z m-2659
-159 c-6 -8 -7 -18 -3 -23 4 -4 -1 -2 -10 5 -19 14 -25 26 -9 16 5 -3 12 -1
16 5 3 5 9 10 12 10 3 0 0 -6 -6 -13z m2973 -5 c3 -5 -1 -9 -9 -9 -8 0 -12 4
-9 9 3 4 7 8 9 8 2 0 6 -4 9 -8z m23 -39 c0 -9 -4 -10 -14 -2 -7 6 -13 12 -13
14 0 1 6 2 13 2 8 0 14 -6 14 -14z m-3089 -59 c0 -17 -3 -22 -8 -13 -5 6 -6
18 -3 26 8 19 11 16 11 -13z m3682 -34 c0 -5 -2 -10 -4 -10 -3 0 -8 5 -11 10
-3 6 -1 10 4 10 6 0 11 -4 11 -10z m-270 -105 c19 -22 8 -25 -12 -3 -10 10
-14 18 -9 18 5 0 14 -7 21 -15z m-3727 -83 c-10 -10 -20 -17 -22 -16 -6 5 20
34 30 34 5 0 1 -8 -8 -18z m3733 -8 c1 -9 0 -13 -4 -10 -3 4 -7 14 -8 22 -1 9
0 13 4 10 3 -4 7 -14 8 -22z m55 -11 c13 -16 12 -17 -3 -4 -10 7 -18 15 -18
17 0 8 8 3 21 -13z m-4260 -77 c-6 -7 -7 -17 -3 -21 4 -5 1 -5 -6 -1 -9 6 -10
11 -3 20 6 7 7 17 3 21 -4 5 -1 5 6 1 9 -6 10 -11 3 -20z m4744 -16 c-3 -5 -1
-10 6 -10 7 0 10 -3 6 -6 -9 -9 -28 6 -22 17 4 5 8 9 11 9 3 0 2 -4 -1 -10z
m55 -24 c0 -2 -8 -10 -17 -17 -16 -13 -17 -12 -4 4 13 16 21 21 21 13z m-4834
-58 c3 -4 -1 -5 -10 -4 -8 1 -18 5 -22 8 -3 4 1 5 10 4 8 -1 18 -5 22 -8z
m-97 -102 c9 -11 9 -16 -1 -22 -7 -4 -10 -4 -6 1 4 4 3 14 -3 22 -6 7 -9 13
-6 13 2 0 10 -6 16 -14z m4732 -103 c13 -16 12 -17 -3 -4 -10 7 -18 15 -18 17
0 8 8 3 21 -13z m374 -53 c-3 -5 -13 -6 -21 -3 -12 4 -13 8 -3 14 15 9 32 2
24 -11z m59 -78 c3 -5 -1 -9 -9 -9 -8 0 -12 4 -9 9 3 4 7 8 9 8 2 0 6 -4 9 -8z
m-4937 -46 c0 -8 -6 -12 -14 -9 -7 3 -10 9 -7 14 8 14 21 11 21 -5z m-22 -34
c-3 -3 -11 0 -18 7 -9 10 -8 11 6 5 10 -3 15 -9 12 -12z m4639 -108 c3 -8 2
-12 -4 -9 -6 3 -10 10 -10 16 0 14 7 11 14 -7z m-4700 -36 c-3 -4 -11 -5 -19
-1 -21 7 -19 12 4 10 11 0 18 -5 15 -9z m5093 -3 c0 -8 -4 -12 -9 -9 -5 3 -6
10 -3 15 9 13 12 11 12 -6z m-5182 -155 c3 -5 1 -10 -4 -10 -6 0 -11 5 -11 10
0 6 2 10 4 10 3 0 8 -4 11 -10z m4904 -13 c0 -9 -2 -8 -6 1 -2 6 -10 9 -15 6
-7 -4 -8 -2 -4 5 9 13 26 5 25 -12z m-4922 -69 c4 -28 -6 -18 -12 12 -2 12 -1
20 2 16 4 -4 8 -16 10 -28z m-366 9 c-6 -8 -7 -18 -3 -22 4 -5 1 -5 -6 -1 -10
6 -10 11 -1 22 6 8 14 14 16 14 3 0 0 -6 -6 -13z m1442 -72 c-4 -14 -30 -14
-30 0 0 7 7 12 16 10 9 -1 15 -6 14 -10z m4221 -44 c-5 -6 -34 20 -34 30 0 5
8 1 18 -8 10 -10 17 -20 16 -22z m-278 -16 c-1 -8 -5 -17 -8 -21 -5 -4 -4 16
1 34 3 9 9 -1 7 -13z m-1488 -40 c-3 -3 -9 2 -12 12 -6 14 -5 15 5 6 7 -7 10
-15 7 -18z m26 -13 c3 -5 -1 -9 -9 -9 -8 0 -12 4 -9 9 3 4 7 8 9 8 2 0 6 -4 9
-8z m1466 -46 c0 -2 -8 -10 -17 -17 -16 -13 -17 -12 -4 4 13 16 21 21 21 13z
m360 -22 c0 -2 -9 -8 -20 -14 -15 -8 -18 -8 -14 3 4 11 34 21 34 11z m-2130
-80 c0 -8 -19 -13 -24 -6 -3 5 1 9 9 9 8 0 15 -2 15 -3z m-1400 -78 c0 -2 -8
-10 -17 -17 -16 -13 -17 -12 -4 4 13 16 21 21 21 13z m3205 -46 c-3 -5 -12
-10 -18 -10 -7 0 -6 4 3 10 19 12 23 12 15 0z m-5222 -205 c-3 -9 -8 -14 -10
-11 -3 3 -2 9 2 15 9 16 15 13 8 -4z m20 -50 c-3 -9 -8 -14 -10 -11 -3 3 -2 9
2 15 9 16 15 13 8 -4z m5231 -291 c3 -8 2 -12 -4 -9 -6 3 -10 10 -10 16 0 14
7 11 14 -7z m-3286 -33 c-8 -14 -14 -16 -23 -7 -10 8 -9 13 4 22 22 17 33 7
19 -15z m-1953 -19 c-3 -3 -11 0 -18 7 -9 10 -8 11 6 5 10 -3 15 -9 12 -12z
m2765 -6 c0 -3 -4 -8 -10 -11 -5 -3 -10 -1 -10 4 0 6 5 11 10 11 6 0 10 -2 10
-4z m-732 -55 c-8 -14 -14 -16 -23 -7 -10 8 -9 13 4 22 22 17 33 7 19 -15z
m-2021 -16 c0 -8 -4 -12 -9 -9 -5 3 -6 10 -3 15 9 13 12 11 12 -6z m5224 -2
c13 -16 12 -17 -3 -4 -17 13 -22 21 -14 21 2 0 10 -8 17 -17z m-3123 -62 c-8
-14 -14 -16 -23 -7 -10 8 -9 13 4 22 22 17 33 7 19 -15z m80 -80 c-8 -14 -14
-16 -23 -7 -10 8 -9 13 4 22 22 17 33 7 19 -15z m2046 -4 c16 -12 16 -13 -3
-13 -11 0 -18 3 -15 7 2 4 -2 10 -8 12 -7 3 -8 6 -2 6 5 1 18 -5 28 -12z
m-2534 -7 c0 -5 -5 -10 -11 -10 -5 0 -7 5 -4 10 3 6 8 10 11 10 2 0 4 -4 4
-10z m1747 -5 c0 -8 -4 -12 -9 -9 -4 3 -8 0 -8 -7 0 -7 -3 -9 -6 -6 -4 4 -1
13 6 22 15 19 17 19 17 0z m88 5 c3 -5 1 -10 -4 -10 -6 0 -11 5 -11 10 0 6 2
10 4 10 3 0 8 -4 11 -10z m1695 6 c0 -2 -8 -10 -17 -17 -16 -13 -17 -12 -4 4
13 16 21 21 21 13z m-4185 -16 c3 -6 -1 -7 -9 -4 -18 7 -21 14 -7 14 6 0 13
-4 16 -10z m-131 -8 c2 -4 -5 -9 -17 -9 -17 -2 -19 0 -7 7 18 12 18 12 24 2z
m-1229 -32 c-3 -5 -12 -10 -18 -10 -7 0 -6 4 3 10 19 12 23 12 15 0z m2583
-19 c-8 -14 -14 -16 -23 -7 -10 8 -9 13 4 22 22 17 33 7 19 -15z m2158 -23 c3
-4 -1 -5 -10 -4 -8 1 -18 5 -22 8 -3 4 1 5 10 4 8 -1 18 -5 22 -8z m45 -5 c13
-16 12 -17 -3 -4 -10 7 -18 15 -18 17 0 8 8 3 21 -13z m-1397 -45 c-3 -31 -3
-30 -14 -23 -7 4 -7 13 0 26 14 25 17 24 14 -3z m1514 -3 c-3 -3 -9 2 -12 12
-6 14 -5 15 5 6 7 -7 10 -15 7 -18z m-3947 -38 c-10 -9 -11 -8 -5 6 3 10 9 15
12 12 3 -3 0 -11 -7 -18z m-913 -42 c-3 -3 -9 2 -12 12 -6 14 -5 15 5 6 7 -7
10 -15 7 -18z m352 10 c-7 -8 -17 -15 -23 -15 -6 0 -2 7 9 15 25 19 30 19 14
0z m4625 6 c3 -5 2 -12 -3 -15 -5 -3 -9 1 -9 9 0 17 3 19 12 6z m108 -96 c-3
-9 -8 -14 -10 -11 -3 3 -2 9 2 15 9 16 15 13 8 -4z m-4363 -1 c0 -8 -19 -13
-24 -6 -3 5 1 9 9 9 8 0 15 -2 15 -3z m4411 -31 c2 1 3 0 1 -2 -6 -10 -32 -9
-32 0 0 6 -5 7 -12 3 -7 -4 -8 -3 -4 4 5 8 13 9 25 2 10 -5 20 -8 22 -7z
m-5074 -128 c0 -8 -4 -12 -9 -9 -5 3 -6 10 -3 15 9 13 12 11 12 -6z m5644 -22
c13 -16 12 -17 -3 -4 -17 13 -22 21 -14 21 2 0 10 -8 17 -17z m-3235 -58 c-1
-8 -5 -17 -8 -21 -5 -4 -4 16 1 34 3 9 9 -1 7 -13z m-2003 -20 c4 3 5 2 2 -2
-3 -4 -13 -8 -21 -9 -9 -1 -13 0 -10 3 3 4 0 13 -6 22 -10 12 -7 12 8 -2 11
-9 24 -15 27 -12z m4868 -18 c-10 -9 -11 -8 -5 6 3 10 9 15 12 12 3 -3 0 -11
-7 -18z m-5212 -123 c-9 -11 -9 -14 1 -14 8 0 11 -3 7 -6 -12 -12 -28 7 -18
20 6 7 7 17 3 21 -4 5 -1 5 6 1 10 -6 10 -11 1 -22z m2352 -91 c13 -16 12 -17
-3 -4 -10 7 -18 15 -18 17 0 8 8 3 21 -13z m3096 -76 c0 -8 -6 -14 -14 -14 -9
0 -10 4 -2 14 6 7 12 13 14 13 1 0 2 -6 2 -13z m-5347 -61 c0 -2 -7 -7 -16
-10 -8 -3 -12 -2 -9 4 6 10 25 14 25 6z m5285 -66 c-3 -5 -12 -10 -18 -10 -7
0 -6 4 3 10 19 12 23 12 15 0z m-8 -39 c0 -11 -5 -18 -9 -15 -4 3 -5 11 -1 19
7 21 12 19 10 -4z m-17 -55 c-7 -7 -13 -7 -20 0 -6 6 -3 10 10 10 13 0 16 -4
10 -10z m-2076 -25 c12 -13 14 -21 6 -26 -6 -3 -9 -1 -8 6 2 7 -3 14 -9 15
-23 3 -24 4 -18 14 8 13 9 13 29 -9z m-2666 -73 c-2 -7 2 -12 8 -11 6 1 11 -5
11 -13 0 -12 -4 -11 -18 2 -10 9 -16 21 -13 25 8 13 14 11 12 -3z m2742 -3 c0
-2 -6 -8 -13 -14 -10 -8 -14 -7 -14 2 0 8 6 14 14 14 7 0 13 -1 13 -2z m1464
-77 c-3 -4 -11 -5 -19 -1 -21 7 -19 12 4 10 11 0 18 -5 15 -9z m-1234 -176 c0
-12 -3 -12 -15 -2 -8 7 -15 13 -15 15 0 1 7 2 15 2 8 0 15 -7 15 -15z m168
-57 c-3 -3 -9 2 -12 12 -6 14 -5 15 5 6 7 -7 10 -15 7 -18z m752 -30 c-7 -8
-16 -15 -21 -15 -5 0 -1 8 9 18 20 22 31 19 12 -3z m-4026 -121 c5 -14 4 -15
-9 -4 -17 14 -19 20 -6 20 5 0 12 -7 15 -16z m4426 -194 c0 -5 -5 -10 -11 -10
-5 0 -7 5 -4 10 3 6 8 10 11 10 2 0 4 -4 4 -10z m-4270 -66 c0 -8 -19 -13 -24
-6 -3 5 1 9 9 9 8 0 15 -2 15 -3z m115 -144 c-3 -5 -12 -10 -18 -10 -7 0 -6 4
3 10 19 12 23 12 15 0z m85 -66 c0 -8 -19 -13 -24 -6 -3 5 1 9 9 9 8 0 15 -2
15 -3z m75 -83 c3 -5 2 -12 -3 -15 -5 -3 -9 1 -9 9 0 17 3 19 12 6z m3696 -24
c-10 -9 -11 -8 -5 6 3 10 9 15 12 12 3 -3 0 -11 -7 -18z m-3716 -16 c3 -5 2
-12 -3 -15 -5 -3 -9 1 -9 9 0 17 3 19 12 6z m3561 -132 c1 -5 2 -14 3 -20 0
-5 6 -7 13 -3 7 5 8 3 3 -5 -9 -16 -24 -2 -30 29 -2 12 -1 19 3 16 4 -4 8 -12
8 -17z m-3331 -138 c3 -5 2 -12 -3 -15 -5 -3 -9 1 -9 9 0 17 3 19 12 6z m3109
-109 c3 -5 -1 -9 -9 -9 -8 0 -12 4 -9 9 3 4 7 8 9 8 2 0 6 -4 9 -8z m-2776
-214 c-2 -7 3 -12 10 -10 8 1 11 -2 7 -8 -5 -8 -11 -8 -21 1 -7 6 -11 15 -8
20 8 13 14 11 12 -3z m2525 -6 c-10 -10 -20 -17 -22 -16 -6 5 20 34 30 34 5 0
1 -8 -8 -18z m-2445 -74 c-2 -7 3 -12 10 -10 8 1 11 -2 7 -8 -5 -8 -11 -8 -21
1 -7 6 -11 15 -8 20 8 13 14 11 12 -3z m2365 -6 c-10 -10 -20 -17 -22 -16 -6
5 20 34 30 34 5 0 1 -8 -8 -18z m-80 -80 c-10 -10 -20 -17 -22 -16 -6 5 20 34
30 34 5 0 1 -8 -8 -18z m-2186 -17 c0 -8 -4 -12 -9 -9 -5 3 -6 10 -3 15 9 13
12 11 12 -6z m110 -140 c0 -8 -4 -12 -9 -9 -5 3 -6 10 -3 15 9 13 12 11 12 -6z
m125 -129 c9 -18 8 -19 -3 -6 -8 8 -21 20 -29 27 -13 11 -13 12 3 7 10 -4 22
-16 29 -28z m1758 10 c0 -2 -8 -10 -17 -17 -16 -13 -17 -12 -4 4 13 16 21 21
21 13z m-110 -66 c-9 -6 -9 -9 -1 -13 8 -4 8 -5 0 -3 -7 1 -13 9 -15 18 -1 11
3 15 13 11 11 -4 12 -8 3 -13z m-1373 -145 c0 -8 -4 -15 -9 -15 -10 0 -11 14
-1 23 9 10 10 9 10 -8z m1120 -90 c0 -8 -4 -12 -9 -9 -5 3 -6 10 -3 15 9 13
12 11 12 -6z m-948 -68 c0 -9 -2 -8 -6 1 -2 6 -10 9 -15 6 -7 -4 -8 -2 -4 5 9
13 26 5 25 -12z"/>
<path d="M15735 25970 c-3 -5 -1 -10 4 -10 6 0 11 5 11 10 0 6 -2 10 -4 10 -3
0 -8 -4 -11 -10z"/>
<path d="M37606 30062 c-3 -5 -26 -7 -51 -6 -42 3 -44 1 -35 -16 6 -10 15 -22
22 -26 6 -4 8 -3 5 3 -3 5 0 10 7 10 8 0 12 -6 9 -14 -3 -8 13 -40 36 -73 23
-33 51 -80 62 -104 11 -25 24 -48 30 -52 6 -3 8 -13 5 -21 -3 -8 -3 -20 1 -26
8 -13 9 -19 11 -60 l2 -29 35 42 c19 23 32 47 28 52 -3 7 -1 8 5 4 14 -9 74
93 68 117 -2 9 -1 15 4 12 23 -14 26 67 3 105 -19 33 -87 74 -108 66 -8 -3
-15 -1 -15 5 0 5 -17 9 -37 8 -21 -1 -48 1 -60 5 -12 4 -24 3 -27 -2z m144
-36 c0 -2 -7 -7 -16 -10 -8 -3 -12 -2 -9 4 6 10 25 14 25 6z m56 -199 c1 -7
-6 -13 -16 -13 -9 0 -17 6 -17 12 0 7 7 10 15 6 11 -4 13 -1 7 9 -5 8 -4 11 0
6 5 -4 10 -13 11 -20z m-11 -46 c3 -5 2 -12 -3 -15 -5 -3 -9 1 -9 9 0 17 3 19
12 6z"/>
<path d="M42790 29715 l0 -345 431 0 430 0 -4 258 c-4 274 -5 280 -27 308 -9
11 -10 15 -2 10 19 -12 14 1 -10 25 -13 12 -16 18 -8 14 10 -6 8 -1 -4 13 -11
12 -25 22 -32 22 -7 0 -14 5 -16 10 -6 19 -74 24 -415 27 l-343 4 0 -346z"/>
<path d="M20026 27323 c-10 -38 -21 -78 -26 -90 -5 -12 -7 -31 -5 -43 2 -11 0
-18 -6 -15 -13 9 -11 -9 4 -24 10 -10 9 -11 -5 -6 -14 5 -18 2 -18 -13 0 -11
-7 -36 -15 -55 -18 -44 -19 -61 -2 -51 6 4 4 -2 -6 -13 -9 -11 -14 -23 -10
-26 3 -4 2 -7 -4 -7 -6 0 -14 -17 -19 -37 -10 -49 -8 -42 -23 -86 -10 -30 -10
-41 0 -53 10 -12 9 -13 -7 -8 -10 4 -16 4 -12 -1 4 -4 4 -13 -1 -19 -14 -18
-43 -127 -37 -143 3 -8 2 -12 -3 -9 -7 5 -33 -70 -37 -109 0 -5 -6 -21 -11
-35 -23 -55 -51 -170 -43 -175 5 -3 8 -14 7 -25 -1 -10 -5 -17 -9 -14 -4 3 -4
12 -1 22 3 9 3 14 -1 10 -4 -3 -9 -12 -10 -20 -3 -13 -16 -46 -23 -60 -2 -5
152 -8 342 -8 l347 0 -6 28 c-13 52 -57 197 -68 222 -6 14 -11 30 -10 36 4 24
-18 65 -30 58 -10 -6 -10 -5 -1 7 17 21 -55 272 -76 264 -11 -4 -11 -3 -2 9 7
8 9 21 5 28 -4 7 -9 23 -10 36 -2 13 -11 31 -21 39 -10 8 -12 11 -4 7 11 -5
13 -2 8 17 -4 13 -7 28 -7 32 0 5 -5 5 -12 1 -7 -5 -8 -3 -4 5 5 7 0 18 -10
27 -15 11 -15 13 -3 8 15 -5 14 3 -4 65 -11 38 -24 68 -27 66 -4 -3 -6 7 -4
20 1 14 -1 25 -5 25 -4 0 -8 12 -9 28 -1 15 -8 43 -14 62 -7 19 -13 38 -14 43
-1 4 -3 9 -4 12 -1 3 -3 9 -4 14 -4 30 -15 13 -30 -46z m-32 -231 c3 -5 -1 -9
-9 -9 -8 0 -12 4 -9 9 3 4 7 8 9 8 2 0 6 -4 9 -8z m206 -298 c0 -8 -19 -13
-24 -6 -3 5 1 9 9 9 8 0 15 -2 15 -3z m-364 -288 c1 -9 -4 -12 -13 -9 -12 5
-12 7 -1 14 12 8 4 13 -15 10 -5 -1 -5 4 -2 10 9 13 28 -3 31 -25z m517 -211
c-3 -9 -8 -14 -10 -11 -3 3 -2 9 2 15 9 16 15 13 8 -4z"/>
<path d="M26280 26629 c0 -6 -4 -8 -9 -4 -16 9 -102 -16 -94 -28 3 -6 1 -7 -5
-3 -23 14 -140 -63 -127 -83 3 -6 0 -9 -8 -6 -7 3 -28 -10 -45 -30 -18 -19
-29 -35 -25 -35 5 0 0 -5 -10 -11 -18 -10 -18 -12 0 -32 9 -12 11 -16 3 -9 -8
6 -17 12 -22 12 -13 0 -40 -61 -34 -76 3 -9 1 -12 -4 -9 -6 3 -11 1 -11 -4 -3
-20 -4 -26 -11 -37 -17 -26 -30 -155 -25 -242 4 -74 9 -97 24 -109 10 -8 12
-12 6 -8 -15 7 -18 -11 -3 -20 6 -4 8 -11 5 -16 -4 -5 -2 -9 3 -9 6 0 8 -9 5
-20 -3 -12 0 -20 6 -20 7 0 10 -4 7 -9 -8 -12 57 -116 104 -164 38 -40 133
-105 162 -111 7 -2 27 -9 43 -16 34 -14 255 -26 255 -13 0 4 13 8 29 9 34 1
149 53 175 80 11 10 29 24 40 30 12 6 20 16 18 23 -1 7 2 10 7 7 8 -5 48 44
42 53 -1 2 3 7 11 12 7 5 13 12 13 17 0 5 8 16 18 26 9 10 15 22 12 27 -4 5
-2 9 3 9 5 0 14 18 21 41 7 23 15 48 19 58 5 14 4 14 -14 1 -14 -10 -13 -7 4
12 20 22 24 39 27 116 4 96 -10 215 -26 220 -5 2 -6 8 -3 13 3 6 1 15 -4 22
-10 12 -12 18 -12 38 0 5 -5 7 -12 3 -7 -4 -8 -3 -4 4 10 16 -12 54 -26 46 -7
-4 -8 -3 -4 4 11 19 -12 52 -32 46 -14 -5 -14 -4 -2 5 12 8 11 14 -10 36 -33
35 -120 101 -127 97 -3 -2 -9 1 -13 8 -4 6 -13 12 -21 14 -8 1 -23 7 -34 13
-16 9 -24 8 -37 -3 -12 -12 -18 -12 -24 -3 -4 7 -3 10 4 5 6 -3 13 -2 17 4 7
12 -40 24 -56 14 -8 -4 -9 -3 -5 4 9 16 -38 16 -66 1 -12 -6 -18 -7 -14 -1 4
6 -15 10 -49 11 -31 0 -55 -4 -55 -10z m455 -158 c3 -5 2 -12 -3 -15 -5 -3 -9
1 -9 9 0 17 3 19 12 6z m-835 -246 c-5 -7 -9 -14 -7 -16 1 -2 0 -3 -2 -1 -11
7 -7 29 5 29 9 0 11 -4 4 -12z m8 -180 c-3 -3 -9 2 -12 12 -6 14 -5 15 5 6 7
-7 10 -15 7 -18z m-18 -29 c0 -2 -8 -10 -17 -17 -16 -13 -17 -12 -4 4 13 16
21 21 21 13z m949 -109 c0 -9 -2 -8 -6 1 -2 6 -10 9 -15 6 -7 -4 -8 -2 -4 5 9
13 26 5 25 -12z m-5 -75 c2 -4 -4 -8 -14 -8 -10 0 -16 4 -14 8 3 4 9 8 14 8 5
0 11 -4 14 -8z m-49 -79 c-2 -10 -4 -20 -5 -23 -1 -3 -2 -9 -1 -14 1 -5 -5 -3
-14 4 -14 12 -14 15 1 31 21 23 23 23 19 2z m-105 -119 c0 -8 -19 -13 -24 -6
-3 5 1 9 9 9 8 0 15 -2 15 -3z m-562 -49 c-3 -3 -9 2 -12 12 -6 14 -5 15 5 6
7 -7 10 -15 7 -18z m483 8 c13 -16 12 -17 -3 -4 -17 13 -22 21 -14 21 2 0 10
-8 17 -17z m-17 -19 c3 -8 2 -12 -4 -9 -6 3 -10 10 -10 16 0 14 7 11 14 -7z"/>
<path d="M23698 26634 c-4 -3 -21 -8 -40 -11 -41 -6 -70 -21 -63 -33 3 -5 0
-12 -6 -16 -7 -4 -9 -3 -5 4 25 41 -62 -2 -137 -68 -44 -38 -99 -115 -90 -124
4 -3 1 -6 -5 -6 -9 0 -18 -17 -27 -50 -1 -3 -10 -22 -19 -44 -9 -21 -15 -44
-12 -52 3 -7 0 -14 -7 -17 -14 -4 -17 -232 -3 -262 5 -11 8 -27 7 -37 -1 -9 3
-19 9 -23 6 -3 8 -10 5 -15 -8 -12 53 -140 66 -140 6 0 8 -4 5 -9 -3 -5 23
-37 58 -72 66 -68 140 -111 228 -134 66 -17 148 -18 148 -2 0 8 3 8 8 2 14
-19 60 -16 136 9 42 14 94 37 115 51 61 38 153 134 151 158 0 4 9 16 21 28 11
11 18 27 15 35 -3 8 -2 13 3 10 5 -3 12 6 17 22 9 31 7 26 22 77 15 52 15 68
0 59 -7 -4 -5 2 5 13 12 14 17 37 17 80 0 86 -11 154 -23 146 -5 -3 -7 -2 -4
4 14 22 -37 163 -59 163 -7 0 -16 4 -19 10 -4 6 1 7 10 3 15 -5 15 -3 4 16 -8
11 -17 21 -20 21 -4 0 -9 9 -12 21 -4 14 -10 18 -19 13 -7 -4 -10 -4 -6 1 10
10 -11 37 -22 30 -5 -3 -12 0 -16 6 -5 8 -3 9 6 4 8 -5 11 -4 7 2 -13 20 -86
65 -97 58 -6 -3 -9 -1 -8 7 2 7 -5 12 -14 12 -10 -1 -16 2 -13 6 3 4 -7 11
-23 15 -15 5 -31 9 -37 11 -5 1 -23 7 -40 11 -16 5 -48 9 -70 8 -31 0 -40 -4
-40 -17 0 -9 -3 -20 -7 -23 -3 -4 -5 5 -4 19 3 21 -1 26 -20 26 -12 0 -25 -6
-27 -12 -4 -10 -6 -9 -6 1 -1 11 -4 11 -18 0 -11 -10 -14 -10 -9 -1 7 12 -5
17 -16 6z m152 -8 c0 -2 -7 -7 -16 -10 -8 -3 -12 -2 -9 4 6 10 25 14 25 6z
m40 -2 c0 -8 -19 -13 -24 -6 -3 5 1 9 9 9 8 0 15 -2 15 -3z m-185 -23 c3 -5 2
-12 -3 -15 -5 -3 -9 1 -9 9 0 17 3 19 12 6z m222 -8 c0 -9 -4 -10 -14 -2 -7 6
-13 12 -13 14 0 1 6 2 13 2 8 0 14 -6 14 -14z m-453 -81 c3 -5 -1 -9 -9 -9 -8
0 -12 4 -9 9 3 4 7 8 9 8 2 0 6 -4 9 -8z m796 -198 c0 -8 -19 -13 -24 -6 -3 5
1 9 9 9 8 0 15 -2 15 -3z m-940 -48 c0 -2 -7 -7 -16 -10 -8 -3 -12 -2 -9 4 6
10 25 14 25 6z m928 -287 c-3 -8 -7 -3 -11 10 -4 17 -3 21 5 13 5 -5 8 -16 6
-23z m-833 -227 c-3 -3 -11 0 -18 7 -9 10 -8 11 6 5 10 -3 15 -9 12 -12z m76
-99 c13 -16 12 -17 -3 -4 -17 13 -22 21 -14 21 2 0 10 -8 17 -17z m561 -54 c2
-2 1 -3 -1 -2 -2 2 -9 -5 -16 -14 -9 -13 -14 -13 -20 -3 -6 9 -4 11 5 5 10 -6
12 -4 7 7 -3 10 -1 15 8 14 8 -1 16 -4 17 -7z m-87 -29 c-3 -5 -12 -10 -18
-10 -7 0 -6 4 3 10 19 12 23 12 15 0z"/>
<path d="M34647 26634 c-4 -4 -20 -8 -37 -9 -35 -3 -63 -23 -53 -38 3 -6 1 -7
-6 -3 -6 4 -8 12 -5 18 4 6 -11 1 -34 -12 -23 -13 -38 -28 -35 -33 4 -6 1 -7
-6 -2 -16 10 -123 -94 -116 -113 2 -7 0 -10 -5 -7 -11 7 -71 -117 -73 -154
l-2 -26 453 -3 c432 -2 452 -1 452 16 0 34 -32 112 -42 105 -7 -4 -8 -1 -3 6
4 8 -1 25 -14 42 -11 15 -21 33 -21 40 0 6 -7 9 -15 5 -8 -3 -14 -2 -14 2 4
22 -5 36 -38 67 -37 34 -61 46 -47 23 4 -7 3 -8 -5 -4 -6 4 -9 12 -5 17 3 5
-15 19 -41 30 -37 16 -49 18 -61 8 -12 -10 -13 -9 -9 3 5 12 -5 17 -49 22 -31
4 -61 4 -68 -1 -19 -11 -39 -13 -32 -2 3 5 -1 9 -10 9 -8 0 -17 -6 -19 -12 -4
-10 -6 -10 -6 0 -1 13 -23 17 -34 6z m-42 -33 c3 -5 2 -12 -3 -15 -5 -3 -9 1
-9 9 0 17 3 19 12 6z m210 -11 c10 -11 16 -20 13 -20 -3 0 -13 9 -23 20 -10
11 -16 20 -13 20 3 0 13 -9 23 -20z m55 -6 c0 -8 -19 -13 -24 -6 -3 5 1 9 9 9
8 0 15 -2 15 -3z m-406 -70 c3 -8 2 -12 -4 -9 -6 3 -10 10 -10 16 0 14 7 11
14 -7z m-70 -55 c-3 -5 -10 -7 -15 -3 -5 3 -7 10 -3 15 3 5 10 7 15 3 5 -3 7
-10 3 -15z m-84 -139 c0 -5 -5 -10 -11 -10 -5 0 -7 5 -4 10 3 6 8 10 11 10 2
0 4 -4 4 -10z m845 -29 c3 -5 2 -12 -3 -15 -5 -3 -9 1 -9 9 0 17 3 19 12 6z"/>
<path d="M39453 26633 c3 -4 -10 -8 -28 -9 -30 0 -105 -29 -105 -40 0 -3 6 -2
13 2 6 4 9 3 5 -1 -5 -5 -19 -10 -33 -11 -14 -1 -39 -12 -55 -24 -25 -18 -29
-25 -19 -36 9 -12 9 -13 -3 -9 -23 9 -91 -64 -127 -134 -38 -75 -61 -163 -66
-254 -5 -77 11 -210 25 -215 5 -2 7 -9 4 -17 -7 -17 65 -167 76 -160 5 3 10
-5 12 -17 2 -13 9 -22 16 -20 8 1 11 -1 8 -6 -9 -15 39 -53 58 -46 12 5 14 9
6 14 -8 5 -7 9 3 13 19 7 16 -21 -4 -33 -11 -8 -11 -12 -1 -22 10 -10 15 -10
23 2 9 13 10 13 6 -2 -4 -12 5 -21 31 -34 20 -10 40 -17 45 -16 4 1 7 -2 7 -7
0 -11 88 -34 100 -26 5 3 11 1 14 -4 9 -13 197 -7 224 8 12 7 20 16 18 20 -3
4 1 8 9 8 8 0 12 -4 9 -9 -8 -13 4 -10 59 18 56 28 182 148 172 164 -3 6 -2
10 4 10 12 0 55 90 70 146 6 23 14 68 17 100 3 33 7 70 10 83 3 16 -3 32 -18
50 -13 14 -15 19 -5 12 15 -12 17 -10 17 21 0 68 -62 254 -81 242 -5 -3 -7 1
-4 8 11 30 -151 181 -207 192 -7 2 -30 11 -52 20 -35 16 -40 16 -56 1 -12 -11
-20 -13 -25 -5 -3 6 -2 9 3 8 6 -2 10 2 11 7 1 6 -39 11 -95 13 -52 1 -93 -1
-91 -5z m44 -20 c0 -9 -4 -10 -14 -2 -7 6 -13 12 -13 14 0 1 6 2 13 2 8 0 14
-6 14 -14z m351 -95 c-2 -7 3 -12 10 -10 8 1 11 -2 7 -8 -5 -8 -11 -8 -19 -1
-7 6 -17 7 -22 3 -4 -4 -2 1 5 11 16 20 22 22 19 5z m-653 -47 c3 -5 2 -12 -3
-15 -5 -3 -9 1 -9 9 0 17 3 19 12 6z m679 -60 c-5 -6 -34 20 -34 30 0 5 8 1
18 -8 10 -10 17 -20 16 -22z m80 -29 c3 -5 -1 -9 -9 -9 -8 0 -12 4 -9 9 3 4 7
8 9 8 2 0 6 -4 9 -8z m30 -40 c3 -5 -1 -9 -9 -9 -8 0 -12 4 -9 9 3 4 7 8 9 8
2 0 6 -4 9 -8z m43 -144 c0 -13 -1 -17 -4 -10 -3 6 -10 9 -16 5 -7 -4 -6 1 2
10 17 21 17 21 18 -5z m-942 -18 c3 -6 -1 -7 -9 -4 -18 7 -21 14 -7 14 6 0 13
-4 16 -10z m900 -380 c-3 -5 -12 -10 -18 -10 -7 0 -6 4 3 10 19 12 23 12 15 0z
m-42 -55 c-3 -9 -8 -14 -10 -11 -3 3 -2 9 2 15 9 16 15 13 8 -4z m-23 -61 c0
-8 -19 -13 -24 -6 -3 5 1 9 9 9 8 0 15 -2 15 -3z m-173 -97 c0 -8 -6 -14 -14
-14 -9 0 -10 4 -2 14 6 7 12 13 14 13 1 0 2 -6 2 -13z m34 -10 c-10 -9 -11 -8
-5 6 3 10 9 15 12 12 3 -3 0 -11 -7 -18z m-86 4 c3 -5 2 -12 -3 -15 -5 -3 -9
1 -9 9 0 17 3 19 12 6z"/>
<path d="M45445 25150 c3 -5 8 -10 11 -10 2 0 4 5 4 10 0 6 -5 10 -11 10 -5 0
-7 -4 -4 -10z"/>
</g>
</svg>
